<svg width="13" height="13" viewBox="0 0 13 13" fill="none" xmlns="http://www.w3.org/2000/svg">
<path d="M6.36996 1.19437C3.5162 1.19437 1.19434 3.51623 1.19434 6.36999C1.19434 9.22375 3.5162 11.5456 6.36996 11.5456C9.22372 11.5456 11.5456 9.22375 11.5456 6.36999C11.5456 3.51623 9.22372 1.19437 6.36996 1.19437ZM6.36996 1.99062C8.79335 1.99062 10.7493 3.9466 10.7493 6.36999C10.7493 8.79338 8.79335 10.7494 6.36996 10.7494C3.94657 10.7494 1.99059 8.79338 1.99059 6.36999C1.99059 3.9466 3.94657 1.99062 6.36996 1.99062ZM5.97184 3.98124V5.97187H3.98121V6.76812H5.97184V8.75874H6.76809V6.76812H8.75871V5.97187H6.76809V3.98124H5.97184Z" fill="#00B306"/>
</svg>
