<svg width="24" height="24" viewBox="0 0 24 24" fill="none" xmlns="http://www.w3.org/2000/svg">
<g filter="url(#filter0_i_338_521)">
<path d="M12.25 16.5C8.5185 16.5 5.915 16.4055 4.2895 16.3165C2.6955 16.2295 1.3645 15.0715 1.2025 13.4285C1.094 12.3285 1 10.7865 1 8.75C1 6.7135 1.094 5.1715 1.2025 4.0715C1.3645 2.428 2.6955 1.2705 4.2895 1.1835C5.9145 1.0945 8.5185 1 12.25 1C15.9815 1 18.585 1.0945 20.2105 1.1835C21.8045 1.2705 23.1355 2.4285 23.2975 4.0715C23.406 5.1715 23.5 6.7135 23.5 8.75C23.5 10.7865 23.406 12.3285 23.2975 13.4285C23.1355 15.072 21.8045 16.2295 20.2105 16.3165C18.5855 16.4055 15.9815 16.5 12.25 16.5Z" fill="#FACA46"/>
</g>
<path d="M12.25 1.25C15.9773 1.25 18.5767 1.34486 20.1973 1.43359C21.6776 1.51458 22.8997 2.5853 23.0488 4.0957C23.1565 5.18705 23.25 6.72118 23.25 8.75C23.25 10.7788 23.1565 12.313 23.0488 13.4043C22.8998 14.9152 21.6776 15.9854 20.1973 16.0664C18.5772 16.1551 15.9773 16.25 12.25 16.25C8.52271 16.25 5.92334 16.1551 4.30273 16.0664C2.82243 15.9854 1.60025 14.9147 1.45117 13.4043C1.34353 12.313 1.25 10.7788 1.25 8.75C1.25 6.72118 1.34353 5.18705 1.45117 4.0957C1.60025 2.58483 2.82239 1.51458 4.30273 1.43359C5.92284 1.34486 8.5227 1.25 12.25 1.25Z" stroke="url(#paint0_linear_338_521)" stroke-width="0.5"/>
<path fill-rule="evenodd" clip-rule="evenodd" d="M5.81749 21.36C5.85833 21.2704 5.91642 21.1897 5.98845 21.1225C6.06048 21.0553 6.14504 21.003 6.23729 20.9685C6.32955 20.934 6.4277 20.918 6.52613 20.9214C6.62457 20.9249 6.72136 20.9477 6.81099 20.9885C7.01199 21.08 7.23949 21.1375 7.48599 21.15C8.54349 21.2035 10.031 21.2505 12 21.2505C13.969 21.2505 15.457 21.2035 16.5145 21.15C16.761 21.1375 16.988 21.08 17.1895 20.9885C17.3699 20.9096 17.5742 20.9049 17.7581 20.9753C17.9421 21.0457 18.0909 21.1857 18.1725 21.3649C18.2541 21.5442 18.262 21.7483 18.1943 21.9333C18.1267 22.1182 17.989 22.2692 17.811 22.3535C17.4264 22.5279 17.0123 22.628 16.5905 22.6485C15.5055 22.7035 13.993 22.7505 12.0005 22.7505C10.0075 22.7505 8.49449 22.703 7.41049 22.648C6.98856 22.6277 6.57428 22.5278 6.18949 22.3535C6.09981 22.3127 6.01906 22.2546 5.95183 22.1826C5.8846 22.1106 5.83222 22.0261 5.79767 21.9338C5.76313 21.8416 5.74709 21.7434 5.75049 21.6449C5.7539 21.5465 5.77666 21.4497 5.81749 21.36ZM3.62099 18.032C3.72916 17.8652 3.89917 17.7481 4.09363 17.7066C4.28809 17.665 4.49108 17.7024 4.65799 17.8105C4.93071 17.9851 5.2445 18.0851 5.56799 18.1005C6.94749 18.1755 9.05749 18.2505 12 18.2505C14.9425 18.2505 17.0525 18.1755 18.432 18.1005C18.7555 18.0851 19.0693 17.9851 19.342 17.8105C19.5089 17.7023 19.712 17.6648 19.9066 17.7064C20.1012 17.7479 20.2713 17.865 20.3795 18.032C20.4877 18.199 20.5252 18.4021 20.4836 18.5966C20.4421 18.7912 20.3249 18.9613 20.158 19.0695C19.6656 19.3863 19.0988 19.5685 18.514 19.598C17.1055 19.675 14.968 19.7505 12 19.7505C9.03199 19.7505 6.89499 19.675 5.48599 19.598C4.90122 19.5685 4.33438 19.3863 3.84199 19.0695C3.75934 19.0159 3.68807 18.9465 3.63224 18.8654C3.5764 18.7842 3.5371 18.6929 3.51658 18.5965C3.49606 18.5002 3.49471 18.4007 3.51263 18.3039C3.53054 18.207 3.56736 18.1146 3.62099 18.032ZM12.75 5C12.75 4.80109 12.671 4.61032 12.5303 4.46967C12.3897 4.32902 12.1989 4.25 12 4.25C11.8011 4.25 11.6103 4.32902 11.4697 4.46967C11.329 4.61032 11.25 4.80109 11.25 5V5.4795C10.8765 5.5649 10.5217 5.71774 10.203 5.9305C9.70249 6.271 9.24999 6.832 9.24999 7.571C9.24999 8.295 9.63549 8.907 10.2665 9.2505C10.7415 9.509 11.337 9.6305 11.7965 9.7235L11.9985 9.7635C12.346 9.8295 12.7085 9.899 13.0165 10.0665C13.1715 10.1515 13.25 10.248 13.25 10.4285C13.25 10.5055 13.2025 10.659 12.953 10.8285C12.7095 10.9945 12.358 11.107 12 11.107C11.473 11.107 10.885 10.961 10.451 10.6455C10.2925 10.5252 10.0928 10.4728 9.89566 10.4998C9.69856 10.5268 9.52026 10.631 9.39999 10.7895C9.27971 10.948 9.22731 11.1477 9.25432 11.3448C9.28132 11.5419 9.38552 11.7202 9.54399 11.8405C10.029 12.2105 10.6545 12.4355 11.25 12.5405V13.0005C11.25 13.1994 11.329 13.3902 11.4697 13.5308C11.6103 13.6715 11.8011 13.7505 12 13.7505C12.1989 13.7505 12.3897 13.6715 12.5303 13.5308C12.671 13.3902 12.75 13.1994 12.75 13.0005V12.52C13.1235 12.4346 13.4783 12.2818 13.797 12.069C14.2975 11.728 14.75 11.1675 14.75 10.4285C14.75 9.7045 14.365 9.0925 13.7335 8.749C13.2585 8.4905 12.6635 8.369 12.2035 8.2755L12.0015 8.2365C11.654 8.17 11.2915 8.1005 10.9835 7.933C10.8285 7.848 10.75 7.7515 10.75 7.571C10.75 7.494 10.7975 7.3405 11.047 7.171C11.2905 7.005 11.6405 6.893 12 6.893C12.539 6.893 13.1105 7.035 13.549 7.354C13.7071 7.47295 13.9058 7.52461 14.1018 7.49773C14.2978 7.47085 14.4752 7.36761 14.5955 7.2105C14.7133 7.05125 14.7645 6.8524 14.7383 6.65604C14.7121 6.45969 14.6105 6.28125 14.455 6.1585C14.24 5.995 13.9975 5.8695 13.7505 5.7615C13.4299 5.62197 13.0941 5.52029 12.75 5.4585V5ZM17.5 9C17.5 8.73478 17.6053 8.48043 17.7929 8.29289C17.9804 8.10536 18.2348 8 18.5 8H19C19.2652 8 19.5196 8.10536 19.7071 8.29289C19.8946 8.48043 20 8.73478 20 9C20 9.26522 19.8946 9.51957 19.7071 9.70711C19.5196 9.89464 19.2652 10 19 10H18.5C18.2348 10 17.9804 9.89464 17.7929 9.70711C17.6053 9.51957 17.5 9.26522 17.5 9ZM4.99999 8C4.73477 8 4.48042 8.10536 4.29288 8.29289C4.10534 8.48043 3.99999 8.73478 3.99999 9C3.99999 9.26522 4.10534 9.51957 4.29288 9.70711C4.48042 9.89464 4.73477 10 4.99999 10H5.49999C5.7652 10 6.01956 9.89464 6.20709 9.70711C6.39463 9.51957 6.49999 9.26522 6.49999 9C6.49999 8.73478 6.39463 8.48043 6.20709 8.29289C6.01956 8.10536 5.7652 8 5.49999 8H4.99999Z" fill="#D59C00"/>
<defs>
<filter id="filter0_i_338_521" x="1" y="1" width="22.5" height="15.5" filterUnits="userSpaceOnUse" color-interpolation-filters="sRGB">
<feFlood flood-opacity="0" result="BackgroundImageFix"/>
<feBlend mode="normal" in="SourceGraphic" in2="BackgroundImageFix" result="shape"/>
<feColorMatrix in="SourceAlpha" type="matrix" values="0 0 0 0 0 0 0 0 0 0 0 0 0 0 0 0 0 0 127 0" result="hardAlpha"/>
<feOffset/>
<feGaussianBlur stdDeviation="1.85"/>
<feComposite in2="hardAlpha" operator="arithmetic" k2="-1" k3="1"/>
<feColorMatrix type="matrix" values="0 0 0 0 0.980392 0 0 0 0 0.792157 0 0 0 0 0.27451 0 0 0 0.2 0"/>
<feBlend mode="normal" in2="shape" result="effect1_innerShadow_338_521"/>
</filter>
<linearGradient id="paint0_linear_338_521" x1="12.25" y1="1" x2="12.25" y2="16.5" gradientUnits="userSpaceOnUse">
<stop stop-color="#D59C00"/>
<stop offset="1" stop-color="#D59C00" stop-opacity="0"/>
</linearGradient>
</defs>
</svg>
