<svg width="16" height="16" viewBox="0 0 16 16" fill="none" xmlns="http://www.w3.org/2000/svg">
<path fill-rule="evenodd" clip-rule="evenodd" d="M15.68 8.18183C15.68 7.61456 15.6291 7.06911 15.5345 6.54547H8V9.64002H12.3055C12.12 10.64 11.5564 11.4873 10.7091 12.0546V14.0618H13.2945C14.8073 12.6691 15.68 10.6182 15.68 8.18183Z" fill="#001EFF"/>
<path fill-rule="evenodd" clip-rule="evenodd" d="M8.00065 15.9999C10.1607 15.9999 11.9716 15.2835 13.2952 14.0617L10.7097 12.0544C9.99338 12.5344 9.07702 12.8181 8.00065 12.8181C5.91702 12.8181 4.15338 11.4108 3.52429 9.5199H0.851562V11.5926C2.16793 14.2072 4.87338 15.9999 8.00065 15.9999Z" fill="#02F511"/>
<path fill-rule="evenodd" clip-rule="evenodd" d="M3.52364 9.52001C3.36364 9.04001 3.27273 8.52729 3.27273 8.00001C3.27273 7.47274 3.36364 6.96001 3.52364 6.48001V4.40729H0.850909C0.309091 5.48729 0 6.70911 0 8.00001C0 9.29092 0.309091 10.5127 0.850909 11.5927L3.52364 9.52001Z" fill="#E5F306"/>
<path fill-rule="evenodd" clip-rule="evenodd" d="M8.00065 3.18182C9.1752 3.18182 10.2297 3.58545 11.0588 4.37818L13.3534 2.08364C11.9679 0.792727 10.157 0 8.00065 0C4.87338 0 2.16793 1.79273 0.851562 4.40727L3.52429 6.48C4.15338 4.58909 5.91702 3.18182 8.00065 3.18182Z" fill="#FE0000"/>
</svg>
