<svg width="24" height="24" viewBox="0 0 24 24" fill="none" xmlns="http://www.w3.org/2000/svg">
<path d="M13.4699 8.53C13.3962 8.46134 13.3371 8.37854 13.2961 8.28654C13.2552 8.19454 13.2331 8.09523 13.2313 7.99452C13.2296 7.89382 13.2481 7.79379 13.2858 7.7004C13.3235 7.60702 13.3797 7.52218 13.4509 7.45096C13.5221 7.37974 13.6069 7.3236 13.7003 7.28588C13.7937 7.24816 13.8937 7.22963 13.9945 7.23141C14.0952 7.23319 14.1945 7.25523 14.2865 7.29622C14.3785 7.33721 14.4613 7.39631 14.5299 7.47L18.5299 11.47C18.6704 11.6106 18.7493 11.8013 18.7493 12C18.7493 12.1988 18.6704 12.3894 18.5299 12.53L14.5299 16.53C14.4613 16.6037 14.3785 16.6628 14.2865 16.7038C14.1945 16.7448 14.0952 16.7668 13.9945 16.7686C13.8937 16.7704 13.7937 16.7518 13.7003 16.7141C13.6069 16.6764 13.5221 16.6203 13.4509 16.549C13.3797 16.4778 13.3235 16.393 13.2858 16.2996C13.2481 16.2062 13.2296 16.1062 13.2313 16.0055C13.2331 15.9048 13.2552 15.8055 13.2961 15.7135C13.3371 15.6215 13.3962 15.5387 13.4699 15.47L16.1899 12.75L6.49993 12.75C6.30102 12.75 6.11025 12.671 5.9696 12.5303C5.82895 12.3897 5.74993 12.1989 5.74993 12C5.74993 11.8011 5.82895 11.6103 5.9696 11.4697C6.11025 11.329 6.30102 11.25 6.49993 11.25L16.1899 11.25L13.4699 8.53Z" fill="#D9D9D9"/>
</svg>
