<svg width="24" height="24" viewBox="0 0 24 24" fill="none" xmlns="http://www.w3.org/2000/svg">
<g clip-path="url(#clip0_72_170)">
<path d="M18.6667 1.33331H5.33333C4.97971 1.33331 4.64057 1.47379 4.39052 1.72384C4.14048 1.97389 4 2.31302 4 2.66665V21.3333C4 21.6869 4.14048 22.0261 4.39052 22.2761C4.64057 22.5262 4.97971 22.6666 5.33333 22.6666H18.6667C19.0203 22.6666 19.3594 22.5262 19.6095 22.2761C19.8595 22.0261 20 21.6869 20 21.3333V2.66665C20 2.31302 19.8595 1.97389 19.6095 1.72384C19.3594 1.47379 19.0203 1.33331 18.6667 1.33331ZM8.66667 17.3333H7.33333V16H8.66667V17.3333ZM8.66667 14.6666H7.33333V13.3333H8.66667V14.6666ZM8.66667 12H7.33333V10.6666H8.66667V12ZM8.66667 9.33331H7.33333V7.99998H8.66667V9.33331ZM8.66667 6.66665H7.33333V5.33331H8.66667V6.66665ZM16.6667 17.3333H10V16H16.6667V17.3333ZM16.6667 14.6666H10V13.3333H16.6667V14.6666ZM16.6667 12H10V10.6666H16.6667V12ZM16.6667 9.33331H10V7.99998H16.6667V9.33331ZM16.6667 6.66665H10V5.33331H16.6667V6.66665Z" fill="white"/>
</g>
<defs>
<clipPath id="clip0_72_170">
<rect width="24" height="24" fill="white"/>
</clipPath>
</defs>
</svg>
