<svg width="10" height="12" viewBox="0 0 10 12" fill="none" xmlns="http://www.w3.org/2000/svg">
<path d="M0.147803 7.165L4.9778 11.97L9.8078 7.165C9.86479 7.12161 9.91179 7.06647 9.94561 7.00334C9.97944 6.9402 9.99931 6.87053 10.0039 6.79905C10.0084 6.72756 9.99758 6.65593 9.97205 6.58901C9.94652 6.52208 9.90691 6.46142 9.8559 6.41114C9.80489 6.36085 9.74367 6.32211 9.67639 6.29754C9.60911 6.27297 9.53733 6.26315 9.46592 6.26873C9.39451 6.27431 9.32513 6.29517 9.26249 6.3299C9.19984 6.36462 9.14538 6.4124 9.1028 6.47L5.4778 10.065L5.4778 0.500002C5.4778 0.367393 5.42513 0.240217 5.33136 0.146449C5.23759 0.0526806 5.11041 1.47946e-06 4.9778 1.46787e-06C4.8452 1.45627e-06 4.71802 0.0526805 4.62425 0.146449C4.53048 0.240217 4.4778 0.367393 4.4778 0.500001L4.4778 10.065L0.852803 6.47C0.75865 6.37651 0.631217 6.32425 0.498535 6.32472C0.365853 6.32519 0.238791 6.37835 0.145302 6.4725C0.0518136 6.56665 -0.000444905 6.69409 2.42915e-05 6.82677C0.000492534 6.95945 0.0536503 7.08651 0.147803 7.18L0.147803 7.165Z" fill="#BF3333"/>
</svg>
