<svg width="28" height="10" viewBox="0 0 28 10" fill="none" xmlns="http://www.w3.org/2000/svg">
<path d="M9.14648 0H9.25195V9.67969H7.35352V5.56641L4.63477 9.52148H4.62305L1.89844 5.56641V9.67969H0V0H0.105469L4.62891 6.24023L9.14648 0ZM15.4277 9.86133C12.7031 9.86133 10.4883 7.61719 10.4883 4.96289C10.4883 2.29688 12.7324 0.0410156 15.3926 0.0410156C16.623 0.0585938 17.7129 0.544922 18.7031 1.5L17.6074 2.99414C16.9629 2.36133 16.1895 1.97461 15.375 1.97461C13.8574 1.97461 12.4102 3.32227 12.4102 4.97461C12.4102 6.65625 13.9102 7.95703 15.3691 7.95703C16.2363 7.95703 16.9863 7.49414 17.6133 6.87891L18.7031 8.41406C17.8711 9.24023 16.8574 9.86133 15.4277 9.86133ZM19.0723 9.67969L21.9434 4.77539L19.248 0.234375H21.4277L23.0449 3.09375L24.6562 0.234375H26.8359L24.1348 4.76953L27.0117 9.67969H24.832L23.0391 6.50977L21.252 9.67969H19.0723Z" fill="#5B298C"/>
</svg>
