<svg width="256" height="285" viewBox="0 0 256 285" fill="none" xmlns="http://www.w3.org/2000/svg">
<path d="M4 146.667L12 146.667" stroke="#FACA46"/>
<path d="M0 146.667L2.66667 146.667" stroke="#FACA46"/>
<path d="M249.333 146.667C249.333 116.255 237.252 87.0893 215.748 65.5851C194.244 44.0809 165.078 32 134.667 32C104.255 32 75.0893 44.0809 53.5851 65.5851C32.0809 87.0892 20 116.255 20 146.667L134.667 146.667H249.333Z" fill="#FACA46" fill-opacity="0.3"/>
<path d="M13.3333 146.667L256 146.667" stroke="#FACA46"/>
<rect x="108.5" y="12.5" width="55" height="100.333" rx="5.5" fill="#FAFAFA" stroke="black"/>
<rect x="108.5" y="27.1667" width="55" height="71" fill="#D9D9D9" stroke="black"/>
<path d="M129.333 19.3333H144" stroke="black"/>
<circle cx="136" cy="105.333" r="4" fill="#0A0A0B"/>
<rect x="146.667" width="74.6667" height="33.3333" rx="4" fill="#FACA46"/>
<path d="M166.667 45.3333L170.316 33L183.018 33L166.667 45.3333Z" fill="#FACA46"/>
<path d="M170.192 13.28L170.768 14.32L168.544 15.248L170.784 16.16L170.176 17.232L168.24 15.824L168.496 18.24H167.296L167.536 15.824L165.6 17.248L164.976 16.16L167.2 15.232L164.976 14.336L165.568 13.264L167.552 14.688L167.296 12.256H168.512L168.24 14.688L170.192 13.28ZM182.293 13.28L182.869 14.32L180.645 15.248L182.885 16.16L182.277 17.232L180.341 15.824L180.597 18.24H179.397L179.637 15.824L177.701 17.248L177.077 16.16L179.301 15.232L177.077 14.336L177.669 13.264L179.653 14.688L179.397 12.256H180.613L180.341 14.688L182.293 13.28ZM194.394 13.28L194.97 14.32L192.746 15.248L194.986 16.16L194.378 17.232L192.442 15.824L192.698 18.24H191.498L191.738 15.824L189.802 17.248L189.178 16.16L191.402 15.232L189.178 14.336L189.77 13.264L191.754 14.688L191.498 12.256H192.714L192.442 14.688L194.394 13.28ZM206.496 13.28L207.072 14.32L204.848 15.248L207.088 16.16L206.48 17.232L204.544 15.824L204.8 18.24H203.6L203.84 15.824L201.904 17.248L201.28 16.16L203.504 15.232L201.28 14.336L201.872 13.264L203.856 14.688L203.6 12.256H204.816L204.544 14.688L206.496 13.28Z" fill="white"/>
<path d="M4.78 180.94V185.02H9.58V186.88H4.78V191.14H10.18V193H2.5V179.08H10.18V180.94H4.78ZM18.5483 181.8C19.4149 181.8 20.1883 181.98 20.8683 182.34C21.5616 182.7 22.1016 183.233 22.4883 183.94C22.8749 184.647 23.0683 185.5 23.0683 186.5V193H20.8083V186.84C20.8083 185.853 20.5616 185.1 20.0683 184.58C19.5749 184.047 18.9016 183.78 18.0483 183.78C17.1949 183.78 16.5149 184.047 16.0083 184.58C15.5149 185.1 15.2683 185.853 15.2683 186.84V193H12.9883V181.98H15.2683V183.24C15.6416 182.787 16.1149 182.433 16.6883 182.18C17.2749 181.927 17.8949 181.8 18.5483 181.8ZM28.6366 183.84V189.94C28.6366 190.353 28.7299 190.653 28.9166 190.84C29.1166 191.013 29.4499 191.1 29.9166 191.1H31.3166V193H29.5166C28.4899 193 27.7032 192.76 27.1566 192.28C26.6099 191.8 26.3366 191.02 26.3366 189.94V183.84H25.0366V181.98H26.3366V179.24H28.6366V181.98H31.3166V183.84H28.6366ZM43.518 187.22C43.518 187.633 43.4913 188.007 43.438 188.34H35.018C35.0846 189.22 35.4113 189.927 35.998 190.46C36.5846 190.993 37.3046 191.26 38.158 191.26C39.3846 191.26 40.2513 190.747 40.758 189.72H43.218C42.8846 190.733 42.278 191.567 41.398 192.22C40.5313 192.86 39.4513 193.18 38.158 193.18C37.1046 193.18 36.158 192.947 35.318 192.48C34.4913 192 33.838 191.333 33.358 190.48C32.8913 189.613 32.658 188.613 32.658 187.48C32.658 186.347 32.8846 185.353 33.338 184.5C33.8046 183.633 34.4513 182.967 35.278 182.5C36.118 182.033 37.078 181.8 38.158 181.8C39.198 181.8 40.1246 182.027 40.938 182.48C41.7513 182.933 42.3846 183.573 42.838 184.4C43.2913 185.213 43.518 186.153 43.518 187.22ZM41.138 186.5C41.1246 185.66 40.8246 184.987 40.238 184.48C39.6513 183.973 38.9246 183.72 38.058 183.72C37.2713 183.72 36.598 183.973 36.038 184.48C35.478 184.973 35.1446 185.647 35.038 186.5H41.138ZM48.0417 183.58C48.3751 183.02 48.8151 182.587 49.3617 182.28C49.9217 181.96 50.5817 181.8 51.3417 181.8V184.16H50.7617C49.8684 184.16 49.1884 184.387 48.7217 184.84C48.2684 185.293 48.0417 186.08 48.0417 187.2V193H45.7617V181.98H48.0417V183.58ZM64.9728 193.14C63.6795 193.14 62.4861 192.84 61.3928 192.24C60.3128 191.627 59.4528 190.78 58.8128 189.7C58.1861 188.607 57.8728 187.38 57.8728 186.02C57.8728 184.66 58.1861 183.44 58.8128 182.36C59.4528 181.28 60.3128 180.44 61.3928 179.84C62.4861 179.227 63.6795 178.92 64.9728 178.92C66.2795 178.92 67.4728 179.227 68.5528 179.84C69.6461 180.44 70.5061 181.28 71.1328 182.36C71.7595 183.44 72.0728 184.66 72.0728 186.02C72.0728 187.38 71.7595 188.607 71.1328 189.7C70.5061 190.78 69.6461 191.627 68.5528 192.24C67.4728 192.84 66.2795 193.14 64.9728 193.14ZM64.9728 191.16C65.8928 191.16 66.7128 190.953 67.4328 190.54C68.1528 190.113 68.7128 189.513 69.1128 188.74C69.5261 187.953 69.7328 187.047 69.7328 186.02C69.7328 184.993 69.5261 184.093 69.1128 183.32C68.7128 182.547 68.1528 181.953 67.4328 181.54C66.7128 181.127 65.8928 180.92 64.9728 180.92C64.0528 180.92 63.2328 181.127 62.5128 181.54C61.7928 181.953 61.2261 182.547 60.8128 183.32C60.4128 184.093 60.2128 184.993 60.2128 186.02C60.2128 187.047 60.4128 187.953 60.8128 188.74C61.2261 189.513 61.7928 190.113 62.5128 190.54C63.2328 190.953 64.0528 191.16 64.9728 191.16ZM79.8764 181.8C80.7431 181.8 81.5164 181.98 82.1964 182.34C82.8897 182.7 83.4297 183.233 83.8164 183.94C84.2031 184.647 84.3964 185.5 84.3964 186.5V193H82.1364V186.84C82.1364 185.853 81.8897 185.1 81.3964 184.58C80.9031 184.047 80.2297 183.78 79.3764 183.78C78.5231 183.78 77.8431 184.047 77.3364 184.58C76.8431 185.1 76.5964 185.853 76.5964 186.84V193H74.3164V181.98H76.5964V183.24C76.9697 182.787 77.4431 182.433 78.0164 182.18C78.6031 181.927 79.2231 181.8 79.8764 181.8ZM97.4047 187.22C97.4047 187.633 97.378 188.007 97.3247 188.34H88.9047C88.9714 189.22 89.298 189.927 89.8847 190.46C90.4714 190.993 91.1914 191.26 92.0447 191.26C93.2714 191.26 94.138 190.747 94.6447 189.72H97.1047C96.7714 190.733 96.1647 191.567 95.2847 192.22C94.418 192.86 93.338 193.18 92.0447 193.18C90.9914 193.18 90.0447 192.947 89.2047 192.48C88.378 192 87.7247 191.333 87.2447 190.48C86.778 189.613 86.5447 188.613 86.5447 187.48C86.5447 186.347 86.7714 185.353 87.2247 184.5C87.6914 183.633 88.338 182.967 89.1647 182.5C90.0047 182.033 90.9647 181.8 92.0447 181.8C93.0847 181.8 94.0114 182.027 94.8247 182.48C95.638 182.933 96.2714 183.573 96.7247 184.4C97.178 185.213 97.4047 186.153 97.4047 187.22ZM95.0247 186.5C95.0114 185.66 94.7114 184.987 94.1247 184.48C93.538 183.973 92.8114 183.72 91.9447 183.72C91.158 183.72 90.4847 183.973 89.9247 184.48C89.3647 184.973 89.0314 185.647 88.9247 186.5H95.0247ZM113.824 179.1V180.96H110.124V193H107.844V180.96H104.124V179.1H113.824ZM117.293 180.52C116.879 180.52 116.533 180.38 116.253 180.1C115.973 179.82 115.833 179.473 115.833 179.06C115.833 178.647 115.973 178.3 116.253 178.02C116.533 177.74 116.879 177.6 117.293 177.6C117.693 177.6 118.033 177.74 118.313 178.02C118.593 178.3 118.733 178.647 118.733 179.06C118.733 179.473 118.593 179.82 118.313 180.1C118.033 180.38 117.693 180.52 117.293 180.52ZM118.413 181.98V193H116.133V181.98H118.413ZM134.746 181.8C135.613 181.8 136.386 181.98 137.066 182.34C137.76 182.7 138.3 183.233 138.686 183.94C139.086 184.647 139.286 185.5 139.286 186.5V193H137.026V186.84C137.026 185.853 136.78 185.1 136.286 184.58C135.793 184.047 135.12 183.78 134.266 183.78C133.413 183.78 132.733 184.047 132.226 184.58C131.733 185.1 131.486 185.853 131.486 186.84V193H129.226V186.84C129.226 185.853 128.98 185.1 128.486 184.58C127.993 184.047 127.32 183.78 126.466 183.78C125.613 183.78 124.933 184.047 124.426 184.58C123.933 185.1 123.686 185.853 123.686 186.84V193H121.406V181.98H123.686V183.24C124.06 182.787 124.533 182.433 125.106 182.18C125.68 181.927 126.293 181.8 126.946 181.8C127.826 181.8 128.613 181.987 129.306 182.36C130 182.733 130.533 183.273 130.906 183.98C131.24 183.313 131.76 182.787 132.466 182.4C133.173 182 133.933 181.8 134.746 181.8ZM152.288 187.22C152.288 187.633 152.261 188.007 152.208 188.34H143.788C143.854 189.22 144.181 189.927 144.768 190.46C145.354 190.993 146.074 191.26 146.928 191.26C148.154 191.26 149.021 190.747 149.528 189.72H151.987C151.654 190.733 151.048 191.567 150.168 192.22C149.301 192.86 148.221 193.18 146.928 193.18C145.874 193.18 144.928 192.947 144.088 192.48C143.261 192 142.608 191.333 142.128 190.48C141.661 189.613 141.428 188.613 141.428 187.48C141.428 186.347 141.654 185.353 142.108 184.5C142.574 183.633 143.221 182.967 144.048 182.5C144.888 182.033 145.848 181.8 146.928 181.8C147.968 181.8 148.894 182.027 149.708 182.48C150.521 182.933 151.154 183.573 151.608 184.4C152.061 185.213 152.288 186.153 152.288 187.22ZM149.908 186.5C149.894 185.66 149.594 184.987 149.008 184.48C148.421 183.973 147.694 183.72 146.828 183.72C146.041 183.72 145.368 183.973 144.808 184.48C144.248 184.973 143.914 185.647 143.808 186.5H149.908ZM169.447 183.24C169.447 183.947 169.28 184.613 168.947 185.24C168.613 185.867 168.08 186.38 167.347 186.78C166.613 187.167 165.673 187.36 164.527 187.36H162.007V193H159.727V179.1H164.527C165.593 179.1 166.493 179.287 167.227 179.66C167.973 180.02 168.527 180.513 168.887 181.14C169.26 181.767 169.447 182.467 169.447 183.24ZM164.527 185.5C165.393 185.5 166.04 185.307 166.467 184.92C166.893 184.52 167.107 183.96 167.107 183.24C167.107 181.72 166.247 180.96 164.527 180.96H162.007V185.5H164.527ZM170.861 187.44C170.861 186.333 171.088 185.353 171.541 184.5C172.008 183.647 172.634 182.987 173.421 182.52C174.221 182.04 175.101 181.8 176.061 181.8C176.928 181.8 177.681 181.973 178.321 182.32C178.974 182.653 179.494 183.073 179.881 183.58V181.98H182.181V193H179.881V191.36C179.494 191.88 178.968 192.313 178.301 192.66C177.634 193.007 176.874 193.18 176.021 193.18C175.074 193.18 174.208 192.94 173.421 192.46C172.634 191.967 172.008 191.287 171.541 190.42C171.088 189.54 170.861 188.547 170.861 187.44ZM179.881 187.48C179.881 186.72 179.721 186.06 179.401 185.5C179.094 184.94 178.688 184.513 178.181 184.22C177.674 183.927 177.128 183.78 176.541 183.78C175.954 183.78 175.408 183.927 174.901 184.22C174.394 184.5 173.981 184.92 173.661 185.48C173.354 186.027 173.201 186.68 173.201 187.44C173.201 188.2 173.354 188.867 173.661 189.44C173.981 190.013 174.394 190.453 174.901 190.76C175.421 191.053 175.968 191.2 176.541 191.2C177.128 191.2 177.674 191.053 178.181 190.76C178.688 190.467 179.094 190.04 179.401 189.48C179.721 188.907 179.881 188.24 179.881 187.48ZM189.176 193.18C188.309 193.18 187.529 193.027 186.836 192.72C186.156 192.4 185.616 191.973 185.216 191.44C184.816 190.893 184.602 190.287 184.576 189.62H186.936C186.976 190.087 187.196 190.48 187.596 190.8C188.009 191.107 188.522 191.26 189.136 191.26C189.776 191.26 190.269 191.14 190.616 190.9C190.976 190.647 191.156 190.327 191.156 189.94C191.156 189.527 190.956 189.22 190.556 189.02C190.169 188.82 189.549 188.6 188.696 188.36C187.869 188.133 187.196 187.913 186.676 187.7C186.156 187.487 185.702 187.16 185.316 186.72C184.942 186.28 184.756 185.7 184.756 184.98C184.756 184.393 184.929 183.86 185.276 183.38C185.622 182.887 186.116 182.5 186.756 182.22C187.409 181.94 188.156 181.8 188.996 181.8C190.249 181.8 191.256 182.12 192.016 182.76C192.789 183.387 193.202 184.247 193.256 185.34H190.976C190.936 184.847 190.736 184.453 190.376 184.16C190.016 183.867 189.529 183.72 188.916 183.72C188.316 183.72 187.856 183.833 187.536 184.06C187.216 184.287 187.056 184.587 187.056 184.96C187.056 185.253 187.162 185.5 187.376 185.7C187.589 185.9 187.849 186.06 188.156 186.18C188.462 186.287 188.916 186.427 189.516 186.6C190.316 186.813 190.969 187.033 191.476 187.26C191.996 187.473 192.442 187.793 192.816 188.22C193.189 188.647 193.382 189.213 193.396 189.92C193.396 190.547 193.222 191.107 192.876 191.6C192.529 192.093 192.036 192.48 191.396 192.76C190.769 193.04 190.029 193.18 189.176 193.18ZM199.859 193.18C198.993 193.18 198.213 193.027 197.519 192.72C196.839 192.4 196.299 191.973 195.899 191.44C195.499 190.893 195.286 190.287 195.259 189.62H197.619C197.659 190.087 197.879 190.48 198.279 190.8C198.693 191.107 199.206 191.26 199.819 191.26C200.459 191.26 200.953 191.14 201.299 190.9C201.659 190.647 201.839 190.327 201.839 189.94C201.839 189.527 201.639 189.22 201.239 189.02C200.853 188.82 200.233 188.6 199.379 188.36C198.553 188.133 197.879 187.913 197.359 187.7C196.839 187.487 196.386 187.16 195.999 186.72C195.626 186.28 195.439 185.7 195.439 184.98C195.439 184.393 195.613 183.86 195.959 183.38C196.306 182.887 196.799 182.5 197.439 182.22C198.093 181.94 198.839 181.8 199.679 181.8C200.933 181.8 201.939 182.12 202.699 182.76C203.473 183.387 203.886 184.247 203.939 185.34H201.659C201.619 184.847 201.419 184.453 201.059 184.16C200.699 183.867 200.213 183.72 199.599 183.72C198.999 183.72 198.539 183.833 198.219 184.06C197.899 184.287 197.739 184.587 197.739 184.96C197.739 185.253 197.846 185.5 198.059 185.7C198.273 185.9 198.533 186.06 198.839 186.18C199.146 186.287 199.599 186.427 200.199 186.6C200.999 186.813 201.653 187.033 202.159 187.26C202.679 187.473 203.126 187.793 203.499 188.22C203.873 188.647 204.066 189.213 204.079 189.92C204.079 190.547 203.906 191.107 203.559 191.6C203.213 192.093 202.719 192.48 202.079 192.76C201.453 193.04 200.713 193.18 199.859 193.18ZM221.343 181.98L217.923 193H215.523L213.303 184.86L211.083 193H208.683L205.243 181.98H207.563L209.863 190.84L212.203 181.98H214.583L216.823 190.8L219.103 181.98H221.343ZM227.827 193.18C226.787 193.18 225.847 192.947 225.007 192.48C224.167 192 223.507 191.333 223.027 190.48C222.547 189.613 222.307 188.613 222.307 187.48C222.307 186.36 222.554 185.367 223.047 184.5C223.54 183.633 224.214 182.967 225.067 182.5C225.92 182.033 226.874 181.8 227.927 181.8C228.98 181.8 229.934 182.033 230.787 182.5C231.64 182.967 232.314 183.633 232.807 184.5C233.3 185.367 233.547 186.36 233.547 187.48C233.547 188.6 233.294 189.593 232.787 190.46C232.28 191.327 231.587 192 230.707 192.48C229.84 192.947 228.88 193.18 227.827 193.18ZM227.827 191.2C228.414 191.2 228.96 191.06 229.467 190.78C229.987 190.5 230.407 190.08 230.727 189.52C231.047 188.96 231.207 188.28 231.207 187.48C231.207 186.68 231.054 186.007 230.747 185.46C230.44 184.9 230.034 184.48 229.527 184.2C229.02 183.92 228.474 183.78 227.887 183.78C227.3 183.78 226.754 183.92 226.247 184.2C225.754 184.48 225.36 184.9 225.067 185.46C224.774 186.007 224.627 186.68 224.627 187.48C224.627 188.667 224.927 189.587 225.527 190.24C226.14 190.88 226.907 191.2 227.827 191.2ZM238.081 183.58C238.414 183.02 238.854 182.587 239.401 182.28C239.961 181.96 240.621 181.8 241.381 181.8V184.16H240.801C239.907 184.16 239.227 184.387 238.761 184.84C238.307 185.293 238.081 186.08 238.081 187.2V193H235.801V181.98H238.081V183.58ZM242.717 187.44C242.717 186.333 242.943 185.353 243.397 184.5C243.863 183.647 244.49 182.987 245.277 182.52C246.077 182.04 246.963 181.8 247.937 181.8C248.657 181.8 249.363 181.96 250.057 182.28C250.763 182.587 251.323 183 251.737 183.52V178.2H254.037V193H251.737V191.34C251.363 191.873 250.843 192.313 250.177 192.66C249.523 193.007 248.77 193.18 247.917 193.18C246.957 193.18 246.077 192.94 245.277 192.46C244.49 191.967 243.863 191.287 243.397 190.42C242.943 189.54 242.717 188.547 242.717 187.44ZM251.737 187.48C251.737 186.72 251.577 186.06 251.257 185.5C250.95 184.94 250.543 184.513 250.037 184.22C249.53 183.927 248.983 183.78 248.397 183.78C247.81 183.78 247.263 183.927 246.757 184.22C246.25 184.5 245.837 184.92 245.517 185.48C245.21 186.027 245.057 186.68 245.057 187.44C245.057 188.2 245.21 188.867 245.517 189.44C245.837 190.013 246.25 190.453 246.757 190.76C247.277 191.053 247.823 191.2 248.397 191.2C248.983 191.2 249.53 191.053 250.037 190.76C250.543 190.467 250.95 190.04 251.257 189.48C251.577 188.907 251.737 188.24 251.737 187.48Z" fill="#FACA46"/>
<path d="M31.5383 228.084C30.7623 228.084 30.0543 227.904 29.4143 227.544C28.7743 227.176 28.2663 226.668 27.8903 226.02C27.5223 225.364 27.3383 224.628 27.3383 223.812C27.3383 222.996 27.5223 222.264 27.8903 221.616C28.2663 220.96 28.7743 220.452 29.4143 220.092C30.0543 219.724 30.7623 219.54 31.5383 219.54C32.3223 219.54 33.0343 219.724 33.6743 220.092C34.3143 220.452 34.8183 220.956 35.1863 221.604C35.5543 222.252 35.7383 222.988 35.7383 223.812C35.7383 224.636 35.5543 225.372 35.1863 226.02C34.8183 226.668 34.3143 227.176 33.6743 227.544C33.0343 227.904 32.3223 228.084 31.5383 228.084ZM31.5383 227.136C32.1223 227.136 32.6463 227 33.1103 226.728C33.5823 226.456 33.9503 226.068 34.2143 225.564C34.4863 225.06 34.6223 224.476 34.6223 223.812C34.6223 223.14 34.4863 222.556 34.2143 222.06C33.9503 221.556 33.5863 221.168 33.1223 220.896C32.6583 220.624 32.1303 220.488 31.5383 220.488C30.9463 220.488 30.4183 220.624 29.9543 220.896C29.4903 221.168 29.1223 221.556 28.8503 222.06C28.5863 222.556 28.4543 223.14 28.4543 223.812C28.4543 224.476 28.5863 225.06 28.8503 225.564C29.1223 226.068 29.4903 226.456 29.9543 226.728C30.4263 227 30.9543 227.136 31.5383 227.136ZM40.3839 221.304C41.1839 221.304 41.8319 221.548 42.3279 222.036C42.8239 222.516 43.0719 223.212 43.0719 224.124V228H41.9919V224.28C41.9919 223.624 41.8279 223.124 41.4999 222.78C41.1719 222.428 40.7239 222.252 40.1559 222.252C39.5799 222.252 39.1199 222.432 38.7759 222.792C38.4399 223.152 38.2719 223.676 38.2719 224.364V228H37.1799V221.424H38.2719V222.36C38.4879 222.024 38.7799 221.764 39.1479 221.58C39.5239 221.396 39.9359 221.304 40.3839 221.304ZM50.8556 224.46C50.8556 224.668 50.8436 224.888 50.8196 225.12H45.5636C45.6036 225.768 45.8236 226.276 46.2236 226.644C46.6316 227.004 47.1236 227.184 47.6996 227.184C48.1716 227.184 48.5636 227.076 48.8756 226.86C49.1956 226.636 49.4196 226.34 49.5476 225.972H50.7236C50.5476 226.604 50.1956 227.12 49.6676 227.52C49.1396 227.912 48.4836 228.108 47.6996 228.108C47.0756 228.108 46.5156 227.968 46.0196 227.688C45.5316 227.408 45.1476 227.012 44.8676 226.5C44.5876 225.98 44.4476 225.38 44.4476 224.7C44.4476 224.02 44.5836 223.424 44.8556 222.912C45.1276 222.4 45.5076 222.008 45.9956 221.736C46.4916 221.456 47.0596 221.316 47.6996 221.316C48.3236 221.316 48.8756 221.452 49.3556 221.724C49.8356 221.996 50.2036 222.372 50.4596 222.852C50.7236 223.324 50.8556 223.86 50.8556 224.46ZM49.7276 224.232C49.7276 223.816 49.6356 223.46 49.4516 223.164C49.2676 222.86 49.0156 222.632 48.6956 222.48C48.3836 222.32 48.0356 222.24 47.6516 222.24C47.0996 222.24 46.6276 222.416 46.2356 222.768C45.8516 223.12 45.6316 223.608 45.5756 224.232H49.7276ZM56.8283 222.324V226.2C56.8283 226.52 56.8963 226.748 57.0323 226.884C57.1683 227.012 57.4043 227.076 57.7403 227.076H58.5443V228H57.5603C56.9523 228 56.4963 227.86 56.1923 227.58C55.8883 227.3 55.7363 226.84 55.7363 226.2V222.324H54.8843V221.424H55.7363V219.768H56.8283V221.424H58.5443V222.324H56.8283ZM60.4314 220.356C60.2234 220.356 60.0474 220.284 59.9034 220.14C59.7594 219.996 59.6874 219.82 59.6874 219.612C59.6874 219.404 59.7594 219.228 59.9034 219.084C60.0474 218.94 60.2234 218.868 60.4314 218.868C60.6314 218.868 60.7994 218.94 60.9354 219.084C61.0794 219.228 61.1514 219.404 61.1514 219.612C61.1514 219.82 61.0794 219.996 60.9354 220.14C60.7994 220.284 60.6314 220.356 60.4314 220.356ZM60.9594 221.424V228H59.8674V221.424H60.9594ZM70.7285 221.304C71.2405 221.304 71.6965 221.412 72.0965 221.628C72.4965 221.836 72.8125 222.152 73.0445 222.576C73.2765 223 73.3925 223.516 73.3925 224.124V228H72.3125V224.28C72.3125 223.624 72.1485 223.124 71.8205 222.78C71.5005 222.428 71.0645 222.252 70.5125 222.252C69.9445 222.252 69.4925 222.436 69.1565 222.804C68.8205 223.164 68.6525 223.688 68.6525 224.376V228H67.5725V224.28C67.5725 223.624 67.4085 223.124 67.0805 222.78C66.7605 222.428 66.3245 222.252 65.7725 222.252C65.2045 222.252 64.7525 222.436 64.4165 222.804C64.0805 223.164 63.9125 223.688 63.9125 224.376V228H62.8205V221.424H63.9125V222.372C64.1285 222.028 64.4165 221.764 64.7765 221.58C65.1445 221.396 65.5485 221.304 65.9885 221.304C66.5405 221.304 67.0285 221.428 67.4525 221.676C67.8765 221.924 68.1925 222.288 68.4005 222.768C68.5845 222.304 68.8885 221.944 69.3125 221.688C69.7365 221.432 70.2085 221.304 70.7285 221.304ZM81.1838 224.46C81.1838 224.668 81.1718 224.888 81.1478 225.12H75.8918C75.9318 225.768 76.1518 226.276 76.5518 226.644C76.9598 227.004 77.4518 227.184 78.0278 227.184C78.4998 227.184 78.8918 227.076 79.2038 226.86C79.5238 226.636 79.7478 226.34 79.8758 225.972H81.0518C80.8758 226.604 80.5238 227.12 79.9958 227.52C79.4678 227.912 78.8118 228.108 78.0278 228.108C77.4038 228.108 76.8438 227.968 76.3478 227.688C75.8598 227.408 75.4758 227.012 75.1958 226.5C74.9158 225.98 74.7758 225.38 74.7758 224.7C74.7758 224.02 74.9118 223.424 75.1838 222.912C75.4558 222.4 75.8358 222.008 76.3238 221.736C76.8198 221.456 77.3878 221.316 78.0278 221.316C78.6518 221.316 79.2038 221.452 79.6838 221.724C80.1638 221.996 80.5318 222.372 80.7878 222.852C81.0518 223.324 81.1838 223.86 81.1838 224.46ZM80.0558 224.232C80.0558 223.816 79.9638 223.46 79.7798 223.164C79.5958 222.86 79.3438 222.632 79.0238 222.48C78.7118 222.32 78.3638 222.24 77.9798 222.24C77.4278 222.24 76.9558 222.416 76.5638 222.768C76.1798 223.12 75.9598 223.608 75.9038 224.232H80.0558ZM86.9164 222.636C87.1324 222.26 87.4524 221.948 87.8764 221.7C88.3084 221.444 88.8084 221.316 89.3764 221.316C89.9604 221.316 90.4884 221.456 90.9604 221.736C91.4404 222.016 91.8164 222.412 92.0884 222.924C92.3604 223.428 92.4964 224.016 92.4964 224.688C92.4964 225.352 92.3604 225.944 92.0884 226.464C91.8164 226.984 91.4404 227.388 90.9604 227.676C90.4884 227.964 89.9604 228.108 89.3764 228.108C88.8164 228.108 88.3204 227.984 87.8884 227.736C87.4644 227.48 87.1404 227.164 86.9164 226.788V231.12H85.8244V221.424H86.9164V222.636ZM91.3804 224.688C91.3804 224.192 91.2804 223.76 91.0804 223.392C90.8804 223.024 90.6084 222.744 90.2644 222.552C89.9284 222.36 89.5564 222.264 89.1484 222.264C88.7484 222.264 88.3764 222.364 88.0324 222.564C87.6964 222.756 87.4244 223.04 87.2164 223.416C87.0164 223.784 86.9164 224.212 86.9164 224.7C86.9164 225.196 87.0164 225.632 87.2164 226.008C87.4244 226.376 87.6964 226.66 88.0324 226.86C88.3764 227.052 88.7484 227.148 89.1484 227.148C89.5564 227.148 89.9284 227.052 90.2644 226.86C90.6084 226.66 90.8804 226.376 91.0804 226.008C91.2804 225.632 91.3804 225.192 91.3804 224.688ZM93.5258 224.688C93.5258 224.016 93.6618 223.428 93.9338 222.924C94.2058 222.412 94.5778 222.016 95.0498 221.736C95.5298 221.456 96.0618 221.316 96.6458 221.316C97.2218 221.316 97.7218 221.44 98.1458 221.688C98.5698 221.936 98.8858 222.248 99.0938 222.624V221.424H100.198V228H99.0938V226.776C98.8778 227.16 98.5538 227.48 98.1218 227.736C97.6978 227.984 97.2018 228.108 96.6338 228.108C96.0498 228.108 95.5218 227.964 95.0498 227.676C94.5778 227.388 94.2058 226.984 93.9338 226.464C93.6618 225.944 93.5258 225.352 93.5258 224.688ZM99.0938 224.7C99.0938 224.204 98.9938 223.772 98.7938 223.404C98.5938 223.036 98.3218 222.756 97.9778 222.564C97.6418 222.364 97.2698 222.264 96.8618 222.264C96.4538 222.264 96.0818 222.36 95.7458 222.552C95.4098 222.744 95.1418 223.024 94.9418 223.392C94.7418 223.76 94.6418 224.192 94.6418 224.688C94.6418 225.192 94.7418 225.632 94.9418 226.008C95.1418 226.376 95.4098 226.66 95.7458 226.86C96.0818 227.052 96.4538 227.148 96.8618 227.148C97.2698 227.148 97.6418 227.052 97.9778 226.86C98.3218 226.66 98.5938 226.376 98.7938 226.008C98.9938 225.632 99.0938 225.196 99.0938 224.7ZM104.371 228.108C103.867 228.108 103.415 228.024 103.015 227.856C102.615 227.68 102.299 227.44 102.067 227.136C101.835 226.824 101.707 226.468 101.683 226.068H102.811C102.843 226.396 102.995 226.664 103.267 226.872C103.547 227.08 103.911 227.184 104.359 227.184C104.775 227.184 105.103 227.092 105.343 226.908C105.583 226.724 105.703 226.492 105.703 226.212C105.703 225.924 105.575 225.712 105.319 225.576C105.063 225.432 104.667 225.292 104.131 225.156C103.643 225.028 103.243 224.9 102.931 224.772C102.627 224.636 102.363 224.44 102.139 224.184C101.923 223.92 101.815 223.576 101.815 223.152C101.815 222.816 101.915 222.508 102.115 222.228C102.315 221.948 102.599 221.728 102.967 221.568C103.335 221.4 103.755 221.316 104.227 221.316C104.955 221.316 105.543 221.5 105.991 221.868C106.439 222.236 106.679 222.74 106.711 223.38H105.619C105.595 223.036 105.455 222.76 105.199 222.552C104.951 222.344 104.615 222.24 104.191 222.24C103.799 222.24 103.487 222.324 103.255 222.492C103.023 222.66 102.907 222.88 102.907 223.152C102.907 223.368 102.975 223.548 103.111 223.692C103.255 223.828 103.431 223.94 103.639 224.028C103.855 224.108 104.151 224.2 104.527 224.304C104.999 224.432 105.383 224.56 105.679 224.688C105.975 224.808 106.227 224.992 106.435 225.24C106.651 225.488 106.763 225.812 106.771 226.212C106.771 226.572 106.671 226.896 106.471 227.184C106.271 227.472 105.987 227.7 105.619 227.868C105.259 228.028 104.843 228.108 104.371 228.108ZM110.641 228.108C110.137 228.108 109.685 228.024 109.285 227.856C108.885 227.68 108.569 227.44 108.337 227.136C108.105 226.824 107.977 226.468 107.953 226.068H109.081C109.113 226.396 109.265 226.664 109.537 226.872C109.817 227.08 110.181 227.184 110.629 227.184C111.045 227.184 111.373 227.092 111.613 226.908C111.853 226.724 111.973 226.492 111.973 226.212C111.973 225.924 111.845 225.712 111.589 225.576C111.333 225.432 110.937 225.292 110.401 225.156C109.913 225.028 109.513 224.9 109.201 224.772C108.897 224.636 108.633 224.44 108.409 224.184C108.193 223.92 108.085 223.576 108.085 223.152C108.085 222.816 108.185 222.508 108.385 222.228C108.585 221.948 108.869 221.728 109.237 221.568C109.605 221.4 110.025 221.316 110.497 221.316C111.225 221.316 111.813 221.5 112.261 221.868C112.709 222.236 112.949 222.74 112.981 223.38H111.889C111.865 223.036 111.725 222.76 111.469 222.552C111.221 222.344 110.885 222.24 110.461 222.24C110.069 222.24 109.757 222.324 109.525 222.492C109.293 222.66 109.177 222.88 109.177 223.152C109.177 223.368 109.245 223.548 109.381 223.692C109.525 223.828 109.701 223.94 109.909 224.028C110.125 224.108 110.421 224.2 110.797 224.304C111.269 224.432 111.653 224.56 111.949 224.688C112.245 224.808 112.497 224.992 112.705 225.24C112.921 225.488 113.033 225.812 113.041 226.212C113.041 226.572 112.941 226.896 112.741 227.184C112.541 227.472 112.257 227.7 111.889 227.868C111.529 228.028 111.113 228.108 110.641 228.108ZM123.342 221.424L121.29 228H120.162L118.578 222.78L116.994 228H115.866L113.802 221.424H114.918L116.43 226.944L118.062 221.424H119.178L120.774 226.956L122.262 221.424H123.342ZM127.294 228.108C126.678 228.108 126.118 227.968 125.614 227.688C125.118 227.408 124.726 227.012 124.438 226.5C124.158 225.98 124.018 225.38 124.018 224.7C124.018 224.028 124.162 223.436 124.45 222.924C124.746 222.404 125.146 222.008 125.65 221.736C126.154 221.456 126.718 221.316 127.342 221.316C127.966 221.316 128.53 221.456 129.034 221.736C129.538 222.008 129.934 222.4 130.222 222.912C130.518 223.424 130.666 224.02 130.666 224.7C130.666 225.38 130.514 225.98 130.21 226.5C129.914 227.012 129.51 227.408 128.998 227.688C128.486 227.968 127.918 228.108 127.294 228.108ZM127.294 227.148C127.686 227.148 128.054 227.056 128.398 226.872C128.742 226.688 129.018 226.412 129.226 226.044C129.442 225.676 129.55 225.228 129.55 224.7C129.55 224.172 129.446 223.724 129.238 223.356C129.03 222.988 128.758 222.716 128.422 222.54C128.086 222.356 127.722 222.264 127.33 222.264C126.93 222.264 126.562 222.356 126.226 222.54C125.898 222.716 125.634 222.988 125.434 223.356C125.234 223.724 125.134 224.172 125.134 224.7C125.134 225.236 125.23 225.688 125.422 226.056C125.622 226.424 125.886 226.7 126.214 226.884C126.542 227.06 126.902 227.148 127.294 227.148ZM133.194 222.492C133.386 222.116 133.658 221.824 134.01 221.616C134.37 221.408 134.806 221.304 135.318 221.304V222.432H135.03C133.806 222.432 133.194 223.096 133.194 224.424V228H132.102V221.424H133.194V222.492ZM136.17 224.688C136.17 224.016 136.306 223.428 136.578 222.924C136.85 222.412 137.222 222.016 137.694 221.736C138.174 221.456 138.71 221.316 139.302 221.316C139.814 221.316 140.29 221.436 140.73 221.676C141.17 221.908 141.506 222.216 141.738 222.6V219.12H142.842V228H141.738V226.764C141.522 227.156 141.202 227.48 140.778 227.736C140.354 227.984 139.858 228.108 139.29 228.108C138.706 228.108 138.174 227.964 137.694 227.676C137.222 227.388 136.85 226.984 136.578 226.464C136.306 225.944 136.17 225.352 136.17 224.688ZM141.738 224.7C141.738 224.204 141.638 223.772 141.438 223.404C141.238 223.036 140.966 222.756 140.622 222.564C140.286 222.364 139.914 222.264 139.506 222.264C139.098 222.264 138.726 222.36 138.39 222.552C138.054 222.744 137.786 223.024 137.586 223.392C137.386 223.76 137.286 224.192 137.286 224.688C137.286 225.192 137.386 225.632 137.586 226.008C137.786 226.376 138.054 226.66 138.39 226.86C138.726 227.052 139.098 227.148 139.506 227.148C139.914 227.148 140.286 227.052 140.622 226.86C140.966 226.66 141.238 226.376 141.438 226.008C141.638 225.632 141.738 225.196 141.738 224.7ZM148.451 220.356C148.243 220.356 148.067 220.284 147.923 220.14C147.779 219.996 147.707 219.82 147.707 219.612C147.707 219.404 147.779 219.228 147.923 219.084C148.067 218.94 148.243 218.868 148.451 218.868C148.651 218.868 148.819 218.94 148.955 219.084C149.099 219.228 149.171 219.404 149.171 219.612C149.171 219.82 149.099 219.996 148.955 220.14C148.819 220.284 148.651 220.356 148.451 220.356ZM148.979 221.424V228H147.887V221.424H148.979ZM153.168 228.108C152.664 228.108 152.212 228.024 151.812 227.856C151.412 227.68 151.096 227.44 150.864 227.136C150.632 226.824 150.504 226.468 150.48 226.068H151.608C151.64 226.396 151.792 226.664 152.064 226.872C152.344 227.08 152.708 227.184 153.156 227.184C153.572 227.184 153.9 227.092 154.14 226.908C154.38 226.724 154.5 226.492 154.5 226.212C154.5 225.924 154.372 225.712 154.116 225.576C153.86 225.432 153.464 225.292 152.928 225.156C152.44 225.028 152.04 224.9 151.728 224.772C151.424 224.636 151.16 224.44 150.936 224.184C150.72 223.92 150.612 223.576 150.612 223.152C150.612 222.816 150.712 222.508 150.912 222.228C151.112 221.948 151.396 221.728 151.764 221.568C152.132 221.4 152.552 221.316 153.024 221.316C153.752 221.316 154.34 221.5 154.788 221.868C155.236 222.236 155.476 222.74 155.508 223.38H154.416C154.392 223.036 154.252 222.76 153.996 222.552C153.748 222.344 153.412 222.24 152.988 222.24C152.596 222.24 152.284 222.324 152.052 222.492C151.82 222.66 151.704 222.88 151.704 223.152C151.704 223.368 151.772 223.548 151.908 223.692C152.052 223.828 152.228 223.94 152.436 224.028C152.652 224.108 152.948 224.2 153.324 224.304C153.796 224.432 154.18 224.56 154.476 224.688C154.772 224.808 155.024 224.992 155.232 225.24C155.448 225.488 155.56 225.812 155.568 226.212C155.568 226.572 155.468 226.896 155.268 227.184C155.068 227.472 154.784 227.7 154.416 227.868C154.056 228.028 153.64 228.108 153.168 228.108ZM162.637 228.108C162.133 228.108 161.681 228.024 161.281 227.856C160.881 227.68 160.565 227.44 160.333 227.136C160.101 226.824 159.973 226.468 159.949 226.068H161.077C161.109 226.396 161.261 226.664 161.533 226.872C161.813 227.08 162.177 227.184 162.625 227.184C163.041 227.184 163.369 227.092 163.609 226.908C163.849 226.724 163.969 226.492 163.969 226.212C163.969 225.924 163.841 225.712 163.585 225.576C163.329 225.432 162.933 225.292 162.397 225.156C161.909 225.028 161.509 224.9 161.197 224.772C160.893 224.636 160.629 224.44 160.405 224.184C160.189 223.92 160.081 223.576 160.081 223.152C160.081 222.816 160.181 222.508 160.381 222.228C160.581 221.948 160.865 221.728 161.233 221.568C161.601 221.4 162.021 221.316 162.493 221.316C163.221 221.316 163.809 221.5 164.257 221.868C164.705 222.236 164.945 222.74 164.977 223.38H163.885C163.861 223.036 163.721 222.76 163.465 222.552C163.217 222.344 162.881 222.24 162.457 222.24C162.065 222.24 161.753 222.324 161.521 222.492C161.289 222.66 161.173 222.88 161.173 223.152C161.173 223.368 161.241 223.548 161.377 223.692C161.521 223.828 161.697 223.94 161.905 224.028C162.121 224.108 162.417 224.2 162.793 224.304C163.265 224.432 163.649 224.56 163.945 224.688C164.241 224.808 164.493 224.992 164.701 225.24C164.917 225.488 165.029 225.812 165.037 226.212C165.037 226.572 164.937 226.896 164.737 227.184C164.537 227.472 164.253 227.7 163.885 227.868C163.525 228.028 163.109 228.108 162.637 228.108ZM172.578 224.46C172.578 224.668 172.566 224.888 172.542 225.12H167.286C167.326 225.768 167.546 226.276 167.946 226.644C168.354 227.004 168.846 227.184 169.422 227.184C169.894 227.184 170.286 227.076 170.598 226.86C170.918 226.636 171.142 226.34 171.27 225.972H172.446C172.27 226.604 171.918 227.12 171.39 227.52C170.862 227.912 170.206 228.108 169.422 228.108C168.798 228.108 168.238 227.968 167.742 227.688C167.254 227.408 166.87 227.012 166.59 226.5C166.31 225.98 166.17 225.38 166.17 224.7C166.17 224.02 166.306 223.424 166.578 222.912C166.85 222.4 167.23 222.008 167.718 221.736C168.214 221.456 168.782 221.316 169.422 221.316C170.046 221.316 170.598 221.452 171.078 221.724C171.558 221.996 171.926 222.372 172.182 222.852C172.446 223.324 172.578 223.86 172.578 224.46ZM171.45 224.232C171.45 223.816 171.358 223.46 171.174 223.164C170.99 222.86 170.738 222.632 170.418 222.48C170.106 222.32 169.758 222.24 169.374 222.24C168.822 222.24 168.35 222.416 167.958 222.768C167.574 223.12 167.354 223.608 167.298 224.232H171.45ZM177.224 221.304C178.024 221.304 178.672 221.548 179.168 222.036C179.664 222.516 179.912 223.212 179.912 224.124V228H178.832V224.28C178.832 223.624 178.668 223.124 178.34 222.78C178.012 222.428 177.564 222.252 176.996 222.252C176.42 222.252 175.96 222.432 175.616 222.792C175.28 223.152 175.112 223.676 175.112 224.364V228H174.02V221.424H175.112V222.36C175.328 222.024 175.62 221.764 175.988 221.58C176.364 221.396 176.776 221.304 177.224 221.304ZM183.027 222.324V226.2C183.027 226.52 183.095 226.748 183.231 226.884C183.367 227.012 183.603 227.076 183.939 227.076H184.743V228H183.759C183.151 228 182.695 227.86 182.391 227.58C182.087 227.3 181.935 226.84 181.935 226.2V222.324H181.083V221.424H181.935V219.768H183.027V221.424H184.743V222.324H183.027ZM190.598 222.324V226.2C190.598 226.52 190.666 226.748 190.802 226.884C190.938 227.012 191.174 227.076 191.51 227.076H192.314V228H191.33C190.722 228 190.266 227.86 189.962 227.58C189.658 227.3 189.506 226.84 189.506 226.2V222.324H188.654V221.424H189.506V219.768H190.598V221.424H192.314V222.324H190.598ZM196.505 228.108C195.889 228.108 195.329 227.968 194.825 227.688C194.329 227.408 193.937 227.012 193.649 226.5C193.369 225.98 193.229 225.38 193.229 224.7C193.229 224.028 193.373 223.436 193.661 222.924C193.957 222.404 194.357 222.008 194.861 221.736C195.365 221.456 195.929 221.316 196.553 221.316C197.177 221.316 197.741 221.456 198.245 221.736C198.749 222.008 199.145 222.4 199.433 222.912C199.729 223.424 199.877 224.02 199.877 224.7C199.877 225.38 199.725 225.98 199.421 226.5C199.125 227.012 198.721 227.408 198.209 227.688C197.697 227.968 197.129 228.108 196.505 228.108ZM196.505 227.148C196.897 227.148 197.265 227.056 197.609 226.872C197.953 226.688 198.229 226.412 198.437 226.044C198.653 225.676 198.761 225.228 198.761 224.7C198.761 224.172 198.657 223.724 198.449 223.356C198.241 222.988 197.969 222.716 197.633 222.54C197.297 222.356 196.933 222.264 196.541 222.264C196.141 222.264 195.773 222.356 195.437 222.54C195.109 222.716 194.845 222.988 194.645 223.356C194.445 223.724 194.345 224.172 194.345 224.7C194.345 225.236 194.441 225.688 194.633 226.056C194.833 226.424 195.097 226.7 195.425 226.884C195.753 227.06 196.113 227.148 196.505 227.148ZM210.176 221.424L206.216 231.096H205.088L206.384 227.928L203.732 221.424H204.944L207.008 226.752L209.048 221.424H210.176ZM214.142 228.108C213.526 228.108 212.966 227.968 212.462 227.688C211.966 227.408 211.574 227.012 211.286 226.5C211.006 225.98 210.866 225.38 210.866 224.7C210.866 224.028 211.01 223.436 211.298 222.924C211.594 222.404 211.994 222.008 212.498 221.736C213.002 221.456 213.566 221.316 214.19 221.316C214.814 221.316 215.378 221.456 215.882 221.736C216.386 222.008 216.782 222.4 217.07 222.912C217.366 223.424 217.514 224.02 217.514 224.7C217.514 225.38 217.362 225.98 217.058 226.5C216.762 227.012 216.358 227.408 215.846 227.688C215.334 227.968 214.766 228.108 214.142 228.108ZM214.142 227.148C214.534 227.148 214.902 227.056 215.246 226.872C215.59 226.688 215.866 226.412 216.074 226.044C216.29 225.676 216.398 225.228 216.398 224.7C216.398 224.172 216.294 223.724 216.086 223.356C215.878 222.988 215.606 222.716 215.27 222.54C214.934 222.356 214.57 222.264 214.178 222.264C213.778 222.264 213.41 222.356 213.074 222.54C212.746 222.716 212.482 222.988 212.282 223.356C212.082 223.724 211.982 224.172 211.982 224.7C211.982 225.236 212.078 225.688 212.27 226.056C212.47 226.424 212.734 226.7 213.062 226.884C213.39 227.06 213.75 227.148 214.142 227.148ZM224.781 221.424V228H223.689V227.028C223.481 227.364 223.189 227.628 222.813 227.82C222.445 228.004 222.037 228.096 221.589 228.096C221.077 228.096 220.617 227.992 220.209 227.784C219.801 227.568 219.477 227.248 219.237 226.824C219.005 226.4 218.889 225.884 218.889 225.276V221.424H219.969V225.132C219.969 225.78 220.133 226.28 220.461 226.632C220.789 226.976 221.237 227.148 221.805 227.148C222.389 227.148 222.849 226.968 223.185 226.608C223.521 226.248 223.689 225.724 223.689 225.036V221.424H224.781ZM227.717 222.492C227.909 222.116 228.181 221.824 228.533 221.616C228.893 221.408 229.329 221.304 229.841 221.304V222.432H229.553C228.329 222.432 227.717 223.096 227.717 224.424V228H226.625V221.424H227.717V222.492ZM58.0253 246L56.0333 242.58H54.7133V246H53.6213V237.636H56.3213C56.9533 237.636 57.4853 237.744 57.9173 237.96C58.3573 238.176 58.6853 238.468 58.9013 238.836C59.1173 239.204 59.2253 239.624 59.2253 240.096C59.2253 240.672 59.0573 241.18 58.7213 241.62C58.3933 242.06 57.8973 242.352 57.2333 242.496L59.3333 246H58.0253ZM54.7133 241.704H56.3213C56.9133 241.704 57.3573 241.56 57.6533 241.272C57.9493 240.976 58.0973 240.584 58.0973 240.096C58.0973 239.6 57.9493 239.216 57.6533 238.944C57.3653 238.672 56.9213 238.536 56.3213 238.536H54.7133V241.704ZM66.922 242.46C66.922 242.668 66.91 242.888 66.886 243.12H61.63C61.67 243.768 61.89 244.276 62.29 244.644C62.698 245.004 63.19 245.184 63.766 245.184C64.238 245.184 64.63 245.076 64.942 244.86C65.262 244.636 65.486 244.34 65.614 243.972H66.79C66.614 244.604 66.262 245.12 65.734 245.52C65.206 245.912 64.55 246.108 63.766 246.108C63.142 246.108 62.582 245.968 62.086 245.688C61.598 245.408 61.214 245.012 60.934 244.5C60.654 243.98 60.514 243.38 60.514 242.7C60.514 242.02 60.65 241.424 60.922 240.912C61.194 240.4 61.574 240.008 62.062 239.736C62.558 239.456 63.126 239.316 63.766 239.316C64.39 239.316 64.942 239.452 65.422 239.724C65.902 239.996 66.27 240.372 66.526 240.852C66.79 241.324 66.922 241.86 66.922 242.46ZM65.794 242.232C65.794 241.816 65.702 241.46 65.518 241.164C65.334 240.86 65.082 240.632 64.762 240.48C64.45 240.32 64.102 240.24 63.718 240.24C63.166 240.24 62.694 240.416 62.302 240.768C61.918 241.12 61.698 241.608 61.642 242.232H65.794ZM71.0755 239.316C71.6435 239.316 72.1395 239.44 72.5635 239.688C72.9955 239.936 73.3155 240.248 73.5235 240.624V239.424H74.6275V246.144C74.6275 246.744 74.4995 247.276 74.2435 247.74C73.9875 248.212 73.6195 248.58 73.1395 248.844C72.6675 249.108 72.1155 249.24 71.4835 249.24C70.6195 249.24 69.8995 249.036 69.3235 248.628C68.7475 248.22 68.4075 247.664 68.3035 246.96H69.3835C69.5035 247.36 69.7515 247.68 70.1275 247.92C70.5035 248.168 70.9555 248.292 71.4835 248.292C72.0835 248.292 72.5715 248.104 72.9475 247.728C73.3315 247.352 73.5235 246.824 73.5235 246.144V244.764C73.3075 245.148 72.9875 245.468 72.5635 245.724C72.1395 245.98 71.6435 246.108 71.0755 246.108C70.4915 246.108 69.9595 245.964 69.4795 245.676C69.0075 245.388 68.6355 244.984 68.3635 244.464C68.0915 243.944 67.9555 243.352 67.9555 242.688C67.9555 242.016 68.0915 241.428 68.3635 240.924C68.6355 240.412 69.0075 240.016 69.4795 239.736C69.9595 239.456 70.4915 239.316 71.0755 239.316ZM73.5235 242.7C73.5235 242.204 73.4235 241.772 73.2235 241.404C73.0235 241.036 72.7515 240.756 72.4075 240.564C72.0715 240.364 71.6995 240.264 71.2915 240.264C70.8835 240.264 70.5115 240.36 70.1755 240.552C69.8395 240.744 69.5715 241.024 69.3715 241.392C69.1715 241.76 69.0715 242.192 69.0715 242.688C69.0715 243.192 69.1715 243.632 69.3715 244.008C69.5715 244.376 69.8395 244.66 70.1755 244.86C70.5115 245.052 70.8835 245.148 71.2915 245.148C71.6995 245.148 72.0715 245.052 72.4075 244.86C72.7515 244.66 73.0235 244.376 73.2235 244.008C73.4235 243.632 73.5235 243.196 73.5235 242.7ZM77.0368 238.356C76.8288 238.356 76.6528 238.284 76.5088 238.14C76.3648 237.996 76.2928 237.82 76.2928 237.612C76.2928 237.404 76.3648 237.228 76.5088 237.084C76.6528 236.94 76.8288 236.868 77.0368 236.868C77.2368 236.868 77.4048 236.94 77.5408 237.084C77.6848 237.228 77.7568 237.404 77.7568 237.612C77.7568 237.82 77.6848 237.996 77.5408 238.14C77.4048 238.284 77.2368 238.356 77.0368 238.356ZM77.5648 239.424V246H76.4728V239.424H77.5648ZM81.754 246.108C81.25 246.108 80.798 246.024 80.398 245.856C79.998 245.68 79.682 245.44 79.45 245.136C79.218 244.824 79.09 244.468 79.066 244.068H80.194C80.226 244.396 80.378 244.664 80.65 244.872C80.93 245.08 81.294 245.184 81.742 245.184C82.158 245.184 82.486 245.092 82.726 244.908C82.966 244.724 83.086 244.492 83.086 244.212C83.086 243.924 82.958 243.712 82.702 243.576C82.446 243.432 82.05 243.292 81.514 243.156C81.026 243.028 80.626 242.9 80.314 242.772C80.01 242.636 79.746 242.44 79.522 242.184C79.306 241.92 79.198 241.576 79.198 241.152C79.198 240.816 79.298 240.508 79.498 240.228C79.698 239.948 79.982 239.728 80.35 239.568C80.718 239.4 81.138 239.316 81.61 239.316C82.338 239.316 82.926 239.5 83.374 239.868C83.822 240.236 84.062 240.74 84.094 241.38H83.002C82.978 241.036 82.838 240.76 82.582 240.552C82.334 240.344 81.998 240.24 81.574 240.24C81.182 240.24 80.87 240.324 80.638 240.492C80.406 240.66 80.29 240.88 80.29 241.152C80.29 241.368 80.358 241.548 80.494 241.692C80.638 241.828 80.814 241.94 81.022 242.028C81.238 242.108 81.534 242.2 81.91 242.304C82.382 242.432 82.766 242.56 83.062 242.688C83.358 242.808 83.61 242.992 83.818 243.24C84.034 243.488 84.146 243.812 84.154 244.212C84.154 244.572 84.054 244.896 83.854 245.184C83.654 245.472 83.37 245.7 83.002 245.868C82.642 246.028 82.226 246.108 81.754 246.108ZM87.0275 240.324V244.2C87.0275 244.52 87.0955 244.748 87.2315 244.884C87.3675 245.012 87.6035 245.076 87.9395 245.076H88.7435V246H87.7595C87.1515 246 86.6955 245.86 86.3915 245.58C86.0875 245.3 85.9355 244.84 85.9355 244.2V240.324H85.0835V239.424H85.9355V237.768H87.0275V239.424H88.7435V240.324H87.0275ZM96.0666 242.46C96.0666 242.668 96.0546 242.888 96.0306 243.12H90.7746C90.8146 243.768 91.0346 244.276 91.4346 244.644C91.8426 245.004 92.3346 245.184 92.9106 245.184C93.3826 245.184 93.7746 245.076 94.0866 244.86C94.4066 244.636 94.6306 244.34 94.7586 243.972H95.9346C95.7586 244.604 95.4066 245.12 94.8786 245.52C94.3506 245.912 93.6946 246.108 92.9106 246.108C92.2866 246.108 91.7266 245.968 91.2306 245.688C90.7426 245.408 90.3586 245.012 90.0786 244.5C89.7986 243.98 89.6586 243.38 89.6586 242.7C89.6586 242.02 89.7946 241.424 90.0666 240.912C90.3386 240.4 90.7186 240.008 91.2066 239.736C91.7026 239.456 92.2706 239.316 92.9106 239.316C93.5346 239.316 94.0866 239.452 94.5666 239.724C95.0466 239.996 95.4146 240.372 95.6706 240.852C95.9346 241.324 96.0666 241.86 96.0666 242.46ZM94.9386 242.232C94.9386 241.816 94.8466 241.46 94.6626 241.164C94.4786 240.86 94.2266 240.632 93.9066 240.48C93.5946 240.32 93.2466 240.24 92.8626 240.24C92.3106 240.24 91.8386 240.416 91.4466 240.768C91.0626 241.12 90.8426 241.608 90.7866 242.232H94.9386ZM98.6 240.492C98.792 240.116 99.064 239.824 99.416 239.616C99.776 239.408 100.212 239.304 100.724 239.304V240.432H100.436C99.212 240.432 98.6 241.096 98.6 242.424V246H97.508V239.424H98.6V240.492ZM107.985 242.46C107.985 242.668 107.973 242.888 107.949 243.12H102.693C102.733 243.768 102.953 244.276 103.353 244.644C103.761 245.004 104.253 245.184 104.829 245.184C105.301 245.184 105.693 245.076 106.005 244.86C106.325 244.636 106.549 244.34 106.677 243.972H107.853C107.677 244.604 107.325 245.12 106.797 245.52C106.269 245.912 105.613 246.108 104.829 246.108C104.205 246.108 103.645 245.968 103.149 245.688C102.661 245.408 102.277 245.012 101.997 244.5C101.717 243.98 101.577 243.38 101.577 242.7C101.577 242.02 101.713 241.424 101.985 240.912C102.257 240.4 102.637 240.008 103.125 239.736C103.621 239.456 104.189 239.316 104.829 239.316C105.453 239.316 106.005 239.452 106.485 239.724C106.965 239.996 107.333 240.372 107.589 240.852C107.853 241.324 107.985 241.86 107.985 242.46ZM106.857 242.232C106.857 241.816 106.765 241.46 106.581 241.164C106.397 240.86 106.145 240.632 105.825 240.48C105.513 240.32 105.165 240.24 104.781 240.24C104.229 240.24 103.757 240.416 103.365 240.768C102.981 241.12 102.761 241.608 102.705 242.232H106.857ZM109.018 242.688C109.018 242.016 109.154 241.428 109.426 240.924C109.698 240.412 110.07 240.016 110.542 239.736C111.022 239.456 111.558 239.316 112.15 239.316C112.662 239.316 113.138 239.436 113.578 239.676C114.018 239.908 114.354 240.216 114.586 240.6V237.12H115.69V246H114.586V244.764C114.37 245.156 114.05 245.48 113.626 245.736C113.202 245.984 112.706 246.108 112.138 246.108C111.554 246.108 111.022 245.964 110.542 245.676C110.07 245.388 109.698 244.984 109.426 244.464C109.154 243.944 109.018 243.352 109.018 242.688ZM114.586 242.7C114.586 242.204 114.486 241.772 114.286 241.404C114.086 241.036 113.814 240.756 113.47 240.564C113.134 240.364 112.762 240.264 112.354 240.264C111.946 240.264 111.574 240.36 111.238 240.552C110.902 240.744 110.634 241.024 110.434 241.392C110.234 241.76 110.134 242.192 110.134 242.688C110.134 243.192 110.234 243.632 110.434 244.008C110.634 244.376 110.902 244.66 111.238 244.86C111.574 245.052 111.946 245.148 112.354 245.148C112.762 245.148 113.134 245.052 113.47 244.86C113.814 244.66 114.086 244.376 114.286 244.008C114.486 243.632 114.586 243.196 114.586 242.7ZM121.827 238.524V241.32H124.875V242.22H121.827V245.1H125.235V246H120.735V237.624H125.235V238.524H121.827ZM134.795 239.304C135.307 239.304 135.763 239.412 136.163 239.628C136.563 239.836 136.879 240.152 137.111 240.576C137.343 241 137.459 241.516 137.459 242.124V246H136.379V242.28C136.379 241.624 136.215 241.124 135.887 240.78C135.567 240.428 135.131 240.252 134.579 240.252C134.011 240.252 133.559 240.436 133.223 240.804C132.887 241.164 132.719 241.688 132.719 242.376V246H131.639V242.28C131.639 241.624 131.475 241.124 131.147 240.78C130.827 240.428 130.391 240.252 129.839 240.252C129.271 240.252 128.819 240.436 128.483 240.804C128.147 241.164 127.979 241.688 127.979 242.376V246H126.887V239.424H127.979V240.372C128.195 240.028 128.483 239.764 128.843 239.58C129.211 239.396 129.615 239.304 130.055 239.304C130.607 239.304 131.095 239.428 131.519 239.676C131.943 239.924 132.259 240.288 132.467 240.768C132.651 240.304 132.955 239.944 133.379 239.688C133.803 239.432 134.275 239.304 134.795 239.304ZM138.842 242.688C138.842 242.016 138.978 241.428 139.25 240.924C139.522 240.412 139.894 240.016 140.366 239.736C140.846 239.456 141.378 239.316 141.962 239.316C142.538 239.316 143.038 239.44 143.462 239.688C143.886 239.936 144.202 240.248 144.41 240.624V239.424H145.514V246H144.41V244.776C144.194 245.16 143.87 245.48 143.438 245.736C143.014 245.984 142.518 246.108 141.95 246.108C141.366 246.108 140.838 245.964 140.366 245.676C139.894 245.388 139.522 244.984 139.25 244.464C138.978 243.944 138.842 243.352 138.842 242.688ZM144.41 242.7C144.41 242.204 144.31 241.772 144.11 241.404C143.91 241.036 143.638 240.756 143.294 240.564C142.958 240.364 142.586 240.264 142.178 240.264C141.77 240.264 141.398 240.36 141.062 240.552C140.726 240.744 140.458 241.024 140.258 241.392C140.058 241.76 139.958 242.192 139.958 242.688C139.958 243.192 140.058 243.632 140.258 244.008C140.458 244.376 140.726 244.66 141.062 244.86C141.398 245.052 141.77 245.148 142.178 245.148C142.586 245.148 142.958 245.052 143.294 244.86C143.638 244.66 143.91 244.376 144.11 244.008C144.31 243.632 144.41 243.196 144.41 242.7ZM147.924 238.356C147.716 238.356 147.54 238.284 147.396 238.14C147.252 237.996 147.18 237.82 147.18 237.612C147.18 237.404 147.252 237.228 147.396 237.084C147.54 236.94 147.716 236.868 147.924 236.868C148.124 236.868 148.292 236.94 148.428 237.084C148.572 237.228 148.644 237.404 148.644 237.612C148.644 237.82 148.572 237.996 148.428 238.14C148.292 238.284 148.124 238.356 147.924 238.356ZM148.452 239.424V246H147.36V239.424H148.452ZM151.405 237.12V246H150.313V237.12H151.405ZM161.409 244.14H157.761L157.089 246H155.937L158.961 237.684H160.221L163.233 246H162.081L161.409 244.14ZM161.097 243.252L159.585 239.028L158.073 243.252H161.097ZM164.143 242.688C164.143 242.016 164.279 241.428 164.551 240.924C164.823 240.412 165.195 240.016 165.667 239.736C166.147 239.456 166.683 239.316 167.275 239.316C167.787 239.316 168.263 239.436 168.703 239.676C169.143 239.908 169.479 240.216 169.711 240.6V237.12H170.815V246H169.711V244.764C169.495 245.156 169.175 245.48 168.751 245.736C168.327 245.984 167.831 246.108 167.263 246.108C166.679 246.108 166.147 245.964 165.667 245.676C165.195 245.388 164.823 244.984 164.551 244.464C164.279 243.944 164.143 243.352 164.143 242.688ZM169.711 242.7C169.711 242.204 169.611 241.772 169.411 241.404C169.211 241.036 168.939 240.756 168.595 240.564C168.259 240.364 167.887 240.264 167.479 240.264C167.071 240.264 166.699 240.36 166.363 240.552C166.027 240.744 165.759 241.024 165.559 241.392C165.359 241.76 165.259 242.192 165.259 242.688C165.259 243.192 165.359 243.632 165.559 244.008C165.759 244.376 166.027 244.66 166.363 244.86C166.699 245.052 167.071 245.148 167.479 245.148C167.887 245.148 168.259 245.052 168.595 244.86C168.939 244.66 169.211 244.376 169.411 244.008C169.611 243.632 169.711 243.196 169.711 242.7ZM172.252 242.688C172.252 242.016 172.388 241.428 172.66 240.924C172.932 240.412 173.304 240.016 173.776 239.736C174.256 239.456 174.792 239.316 175.384 239.316C175.896 239.316 176.372 239.436 176.812 239.676C177.252 239.908 177.588 240.216 177.82 240.6V237.12H178.924V246H177.82V244.764C177.604 245.156 177.284 245.48 176.86 245.736C176.436 245.984 175.94 246.108 175.372 246.108C174.788 246.108 174.256 245.964 173.776 245.676C173.304 245.388 172.932 244.984 172.66 244.464C172.388 243.944 172.252 243.352 172.252 242.688ZM177.82 242.7C177.82 242.204 177.72 241.772 177.52 241.404C177.32 241.036 177.048 240.756 176.704 240.564C176.368 240.364 175.996 240.264 175.588 240.264C175.18 240.264 174.808 240.36 174.472 240.552C174.136 240.744 173.868 241.024 173.668 241.392C173.468 241.76 173.368 242.192 173.368 242.688C173.368 243.192 173.468 243.632 173.668 244.008C173.868 244.376 174.136 244.66 174.472 244.86C174.808 245.052 175.18 245.148 175.588 245.148C175.996 245.148 176.368 245.052 176.704 244.86C177.048 244.66 177.32 244.376 177.52 244.008C177.72 243.632 177.82 243.196 177.82 242.7ZM181.862 240.492C182.054 240.116 182.326 239.824 182.678 239.616C183.038 239.408 183.474 239.304 183.986 239.304V240.432H183.698C182.474 240.432 181.862 241.096 181.862 242.424V246H180.77V239.424H181.862V240.492ZM191.246 242.46C191.246 242.668 191.234 242.888 191.21 243.12H185.954C185.994 243.768 186.214 244.276 186.614 244.644C187.022 245.004 187.514 245.184 188.09 245.184C188.562 245.184 188.954 245.076 189.266 244.86C189.586 244.636 189.81 244.34 189.938 243.972H191.114C190.938 244.604 190.586 245.12 190.058 245.52C189.53 245.912 188.874 246.108 188.09 246.108C187.466 246.108 186.906 245.968 186.41 245.688C185.922 245.408 185.538 245.012 185.258 244.5C184.978 243.98 184.838 243.38 184.838 242.7C184.838 242.02 184.974 241.424 185.246 240.912C185.518 240.4 185.898 240.008 186.386 239.736C186.882 239.456 187.45 239.316 188.09 239.316C188.714 239.316 189.266 239.452 189.746 239.724C190.226 239.996 190.594 240.372 190.85 240.852C191.114 241.324 191.246 241.86 191.246 242.46ZM190.118 242.232C190.118 241.816 190.026 241.46 189.842 241.164C189.658 240.86 189.406 240.632 189.086 240.48C188.774 240.32 188.426 240.24 188.042 240.24C187.49 240.24 187.018 240.416 186.626 240.768C186.242 241.12 186.022 241.608 185.966 242.232H190.118ZM195.016 246.108C194.512 246.108 194.06 246.024 193.66 245.856C193.26 245.68 192.944 245.44 192.712 245.136C192.48 244.824 192.352 244.468 192.328 244.068H193.456C193.488 244.396 193.64 244.664 193.912 244.872C194.192 245.08 194.556 245.184 195.004 245.184C195.42 245.184 195.748 245.092 195.988 244.908C196.228 244.724 196.348 244.492 196.348 244.212C196.348 243.924 196.22 243.712 195.964 243.576C195.708 243.432 195.312 243.292 194.776 243.156C194.288 243.028 193.888 242.9 193.576 242.772C193.272 242.636 193.008 242.44 192.784 242.184C192.568 241.92 192.46 241.576 192.46 241.152C192.46 240.816 192.56 240.508 192.76 240.228C192.96 239.948 193.244 239.728 193.612 239.568C193.98 239.4 194.4 239.316 194.872 239.316C195.6 239.316 196.188 239.5 196.636 239.868C197.084 240.236 197.324 240.74 197.356 241.38H196.264C196.24 241.036 196.1 240.76 195.844 240.552C195.596 240.344 195.26 240.24 194.836 240.24C194.444 240.24 194.132 240.324 193.9 240.492C193.668 240.66 193.552 240.88 193.552 241.152C193.552 241.368 193.62 241.548 193.756 241.692C193.9 241.828 194.076 241.94 194.284 242.028C194.5 242.108 194.796 242.2 195.172 242.304C195.644 242.432 196.028 242.56 196.324 242.688C196.62 242.808 196.872 242.992 197.08 243.24C197.296 243.488 197.408 243.812 197.416 244.212C197.416 244.572 197.316 244.896 197.116 245.184C196.916 245.472 196.632 245.7 196.264 245.868C195.904 246.028 195.488 246.108 195.016 246.108ZM201.285 246.108C200.781 246.108 200.329 246.024 199.929 245.856C199.529 245.68 199.213 245.44 198.981 245.136C198.749 244.824 198.621 244.468 198.597 244.068H199.725C199.757 244.396 199.909 244.664 200.181 244.872C200.461 245.08 200.825 245.184 201.273 245.184C201.689 245.184 202.017 245.092 202.257 244.908C202.497 244.724 202.617 244.492 202.617 244.212C202.617 243.924 202.489 243.712 202.233 243.576C201.977 243.432 201.581 243.292 201.045 243.156C200.557 243.028 200.157 242.9 199.845 242.772C199.541 242.636 199.277 242.44 199.053 242.184C198.837 241.92 198.729 241.576 198.729 241.152C198.729 240.816 198.829 240.508 199.029 240.228C199.229 239.948 199.513 239.728 199.881 239.568C200.249 239.4 200.669 239.316 201.141 239.316C201.869 239.316 202.457 239.5 202.905 239.868C203.353 240.236 203.593 240.74 203.625 241.38H202.533C202.509 241.036 202.369 240.76 202.113 240.552C201.865 240.344 201.529 240.24 201.105 240.24C200.713 240.24 200.401 240.324 200.169 240.492C199.937 240.66 199.821 240.88 199.821 241.152C199.821 241.368 199.889 241.548 200.025 241.692C200.169 241.828 200.345 241.94 200.553 242.028C200.769 242.108 201.065 242.2 201.441 242.304C201.913 242.432 202.297 242.56 202.593 242.688C202.889 242.808 203.141 242.992 203.349 243.24C203.565 243.488 203.677 243.812 203.685 244.212C203.685 244.572 203.585 244.896 203.385 245.184C203.185 245.472 202.901 245.7 202.533 245.868C202.173 246.028 201.757 246.108 201.285 246.108Z" fill="#D9D9D9"/>
</svg>
