<svg width="24" height="24" viewBox="0 0 24 24" fill="none" xmlns="http://www.w3.org/2000/svg">
<path d="M3.99994 18V7.10002L2.44994 3.75002C2.33328 3.50002 2.32494 3.24568 2.42494 2.98702C2.52494 2.72835 2.69994 2.54102 2.94994 2.42502C3.19994 2.30902 3.45428 2.29668 3.71294 2.38802C3.97161 2.47935 4.15894 2.65002 4.27494 2.90002L6.19994 7.05002H17.7999L19.7249 2.90002C19.8416 2.65002 20.0293 2.47502 20.2879 2.37502C20.5466 2.27502 20.8006 2.29168 21.0499 2.42502C21.2999 2.54168 21.4749 2.72935 21.5749 2.98802C21.6749 3.24668 21.6666 3.50068 21.5499 3.75002L19.9999 7.10002V18C19.9999 18.55 19.8043 19.021 19.4129 19.413C19.0216 19.805 18.5506 20.0007 17.9999 20H5.99994C5.44994 20 4.97928 19.8043 4.58794 19.413C4.19661 19.0217 4.00061 18.5507 3.99994 18ZM9.99994 13H13.9999C14.2833 13 14.5209 12.904 14.7129 12.712C14.9049 12.52 15.0006 12.2827 14.9999 12C14.9993 11.7173 14.9033 11.48 14.7119 11.288C14.5206 11.096 14.2833 11 13.9999 11H9.99994C9.71661 11 9.47928 11.096 9.28794 11.288C9.09661 11.48 9.00061 11.7173 8.99994 12C8.99928 12.2827 9.09528 12.5203 9.28794 12.713C9.48061 12.9057 9.71794 13.0013 9.99994 13Z" fill="#FACA46"/>
</svg>
