<svg width="24" height="24" viewBox="0 0 24 24" fill="none" xmlns="http://www.w3.org/2000/svg">
<path d="M4 18V7.10002L2.45 3.75002C2.33334 3.50002 2.325 3.24568 2.425 2.98702C2.525 2.72835 2.7 2.54102 2.95 2.42502C3.2 2.30902 3.45434 2.29668 3.713 2.38802C3.97167 2.47935 4.159 2.65002 4.275 2.90002L6.2 7.05002H17.8L19.725 2.90002C19.8417 2.65002 20.0293 2.47502 20.288 2.37502C20.5467 2.27502 20.8007 2.29168 21.05 2.42502C21.3 2.54168 21.475 2.72935 21.575 2.98802C21.675 3.24668 21.6667 3.50068 21.55 3.75002L20 7.10002V18C20 18.55 19.8043 19.021 19.413 19.413C19.0217 19.805 18.5507 20.0007 18 20H6C5.45 20 4.97934 19.8043 4.588 19.413C4.19667 19.0217 4.00067 18.5507 4 18ZM10 13H14C14.2833 13 14.521 12.904 14.713 12.712C14.905 12.52 15.0007 12.2827 15 12C14.9993 11.7173 14.9033 11.48 14.712 11.288C14.5207 11.096 14.2833 11 14 11H10C9.71667 11 9.47934 11.096 9.288 11.288C9.09667 11.48 9.00067 11.7173 9 12C8.99934 12.2827 9.09534 12.5203 9.288 12.713C9.48067 12.9057 9.718 13.0013 10 13Z" fill="white"/>
</svg>
