<svg width="243" height="262" viewBox="0 0 243 262" fill="none" xmlns="http://www.w3.org/2000/svg">
<path d="M236 146.667C236 116.255 223.919 87.0893 202.415 65.5851C180.911 44.0809 151.745 32 121.333 32C90.9219 32 61.756 44.0809 40.2518 65.5851C18.7477 87.0892 6.66675 116.255 6.66675 146.667L121.333 146.667H236Z" fill="#FACA46" fill-opacity="0.3"/>
<path d="M0 146.667L242.667 146.667" stroke="#FACA46"/>
<rect x="95.1667" y="12.5" width="55" height="100.333" rx="5.5" fill="#FAFAFA" stroke="black"/>
<rect x="95.1667" y="27.1667" width="55" height="71" fill="#D9D9D9" stroke="black"/>
<path d="M116 19.3333H130.667" stroke="black"/>
<circle cx="122.667" cy="105.333" r="4" fill="#0A0A0B"/>
<rect x="133.333" width="74.6667" height="33.3333" rx="4" fill="#FACA46"/>
<path d="M153.333 45.3333L156.983 33L169.684 33L153.333 45.3333Z" fill="#FACA46"/>
<path d="M156.859 13.28L157.435 14.32L155.211 15.248L157.451 16.16L156.843 17.232L154.907 15.824L155.163 18.24H153.963L154.203 15.824L152.267 17.248L151.643 16.16L153.867 15.232L151.643 14.336L152.235 13.264L154.219 14.688L153.963 12.256H155.179L154.907 14.688L156.859 13.28ZM168.96 13.28L169.536 14.32L167.312 15.248L169.552 16.16L168.944 17.232L167.008 15.824L167.264 18.24H166.064L166.304 15.824L164.368 17.248L163.744 16.16L165.968 15.232L163.744 14.336L164.336 13.264L166.32 14.688L166.064 12.256H167.28L167.008 14.688L168.96 13.28ZM181.061 13.28L181.637 14.32L179.413 15.248L181.653 16.16L181.045 17.232L179.109 15.824L179.365 18.24H178.165L178.405 15.824L176.469 17.248L175.845 16.16L178.069 15.232L175.845 14.336L176.437 13.264L178.421 14.688L178.165 12.256H179.381L179.109 14.688L181.061 13.28ZM193.162 13.28L193.738 14.32L191.514 15.248L193.754 16.16L193.146 17.232L191.21 15.824L191.466 18.24H190.266L190.506 15.824L188.57 17.248L187.946 16.16L190.17 15.232L187.946 14.336L188.538 13.264L190.522 14.688L190.266 12.256H191.482L191.21 14.688L193.162 13.28Z" fill="white"/>
</svg>
