<svg width="256" height="262" viewBox="0 0 256 262" fill="none" xmlns="http://www.w3.org/2000/svg">
<path d="M4 146.667L12 146.667" stroke="#5B298C"/>
<path d="M0 146.667L2.66667 146.667" stroke="#5B298C"/>
<path d="M249.333 146.667C249.333 116.255 237.252 87.0893 215.748 65.5851C194.244 44.0809 165.078 32 134.667 32C104.255 32 75.0893 44.0809 53.5851 65.5851C32.0809 87.0892 20 116.255 20 146.667L134.667 146.667H249.333Z" fill="#5B298C" fill-opacity="0.3"/>
<path d="M13.3334 146.667L256 146.667" stroke="#5B298C"/>
<rect x="108.5" y="12.5" width="55" height="100.333" rx="5.5" fill="#FAFAFA" stroke="black"/>
<rect x="108.5" y="27.1667" width="55" height="71" fill="#D9D9D9" stroke="black"/>
<path d="M129.333 19.3333H144" stroke="black"/>
<circle cx="136" cy="105.333" r="4" fill="#0A0A0B"/>
<rect x="146.667" width="74.6667" height="33.3333" rx="4" fill="#5B298C"/>
<path d="M166.667 45.3333L170.316 33L183.018 33L166.667 45.3333Z" fill="#5B298C"/>
<path d="M170.192 13.28L170.768 14.32L168.544 15.248L170.784 16.16L170.176 17.232L168.24 15.824L168.496 18.24H167.296L167.536 15.824L165.6 17.248L164.976 16.16L167.2 15.232L164.976 14.336L165.568 13.264L167.552 14.688L167.296 12.256H168.512L168.24 14.688L170.192 13.28ZM182.293 13.28L182.869 14.32L180.645 15.248L182.885 16.16L182.277 17.232L180.341 15.824L180.597 18.24H179.397L179.637 15.824L177.701 17.248L177.077 16.16L179.301 15.232L177.077 14.336L177.669 13.264L179.653 14.688L179.397 12.256H180.613L180.341 14.688L182.293 13.28ZM194.394 13.28L194.97 14.32L192.746 15.248L194.986 16.16L194.378 17.232L192.442 15.824L192.698 18.24H191.498L191.738 15.824L189.802 17.248L189.178 16.16L191.402 15.232L189.178 14.336L189.77 13.264L191.754 14.688L191.498 12.256H192.714L192.442 14.688L194.394 13.28ZM206.496 13.28L207.072 14.32L204.848 15.248L207.088 16.16L206.48 17.232L204.544 15.824L204.8 18.24H203.6L203.84 15.824L201.904 17.248L201.28 16.16L203.504 15.232L201.28 14.336L201.872 13.264L203.856 14.688L203.6 12.256H204.816L204.544 14.688L206.496 13.28Z" fill="white"/>
</svg>
