<svg width="18" height="18" viewBox="0 0 18 18" fill="none" xmlns="http://www.w3.org/2000/svg">
<path d="M13.8793 7.835L9.0493 3.03L4.2193 7.835C4.16231 7.87839 4.11531 7.93353 4.08149 7.99666C4.04766 8.0598 4.02779 8.12947 4.02323 8.20095C4.01867 8.27244 4.02952 8.34407 4.05505 8.41099C4.08058 8.47792 4.12019 8.53858 4.1712 8.58886C4.22221 8.63915 4.28343 8.67789 4.35071 8.70246C4.41799 8.72703 4.48977 8.73685 4.56118 8.73127C4.63259 8.72569 4.70197 8.70483 4.76462 8.6701C4.82727 8.63538 4.88172 8.5876 4.9243 8.53L8.5493 4.935V14.5C8.5493 14.6326 8.60198 14.7598 8.69574 14.8536C8.78951 14.9473 8.91669 15 9.0493 15C9.18191 15 9.30908 14.9473 9.40285 14.8536C9.49662 14.7598 9.5493 14.6326 9.5493 14.5V4.935L13.1743 8.53C13.2685 8.62349 13.3959 8.67575 13.5286 8.67528C13.6612 8.67481 13.7883 8.62165 13.8818 8.5275C13.9753 8.43335 14.0275 8.30591 14.0271 8.17323C14.0266 8.04055 13.9735 7.91349 13.8793 7.82V7.835Z" fill="#33BF90"/>
</svg>
