<svg width="18" height="18" viewBox="0 0 18 18" fill="none" xmlns="http://www.w3.org/2000/svg">
<path d="M0.631577 8.63158C0.631577 4.86063 0.631577 2.97431 1.80294 1.80294C2.97431 0.631577 4.85979 0.631577 8.63158 0.631577C12.4025 0.631577 14.2888 0.631577 15.4602 1.80294C16.6316 2.97431 16.6316 4.85979 16.6316 8.63158C16.6316 12.4025 16.6316 14.2888 15.4602 15.4602C14.2888 16.6316 12.4034 16.6316 8.63158 16.6316C4.86063 16.6316 2.97431 16.6316 1.80294 15.4602C0.631577 14.2888 0.631577 12.4034 0.631577 8.63158Z" stroke="#FACA46" stroke-width="1.26316" stroke-linejoin="round"/>
<path d="M0.631393 10.7368H1.08529C1.48276 10.7368 1.6815 10.7368 1.85497 10.6535C2.0276 10.5709 2.15139 10.4151 2.39981 10.1044L3.57876 8.63157L4.84192 10.7368L6.10508 7.78947L8.21034 12L11.1577 6.10526L12.8419 9.05262L14.1051 7.78947L15.3219 9.61515C15.5341 9.93347 15.6402 10.0926 15.7952 10.1886C15.8261 10.2077 15.8581 10.2248 15.8912 10.24C15.9886 10.2843 16.5518 12.1155 16.1316 13.6316C15.3219 17.6316 0.631577 18.1316 0.631577 11.1316" fill="#D59C00"/>
<path d="M0.631393 10.7368H1.08529C1.48276 10.7368 1.6815 10.7368 1.85497 10.6535C2.0276 10.5709 2.15139 10.4151 2.39981 10.1044L3.57876 8.63157L4.84192 10.7368L6.10508 7.78947L8.21034 12L11.1577 6.10526L12.8419 9.05262L14.1051 7.78947L15.3219 9.61515C15.5341 9.93347 15.6402 10.0926 15.7952 10.1886C15.8261 10.2077 15.8581 10.2248 15.8912 10.24C15.9886 10.2843 16.5518 12.1155 16.1316 13.6316C15.3219 17.6316 0.631577 18.1316 0.631577 11.1316" stroke="#FACA46" stroke-width="1.26316" stroke-linejoin="round"/>
<path d="M11.1579 0.631577V3.15789M11.1579 16.6316V10.7368" stroke="#FACA46" stroke-width="1.26316" stroke-linecap="round" stroke-linejoin="round"/>
</svg>
