<svg width="24" height="24" viewBox="0 0 24 24" fill="none" xmlns="http://www.w3.org/2000/svg">
<path d="M4 12C4 8.22905 4 6.34274 5.17137 5.17137C6.34274 4 8.22821 4 12 4C15.7709 4 17.6573 4 18.8286 5.17137C20 6.34274 20 8.22821 20 12C20 15.7709 20 17.6573 18.8286 18.8286C17.6573 20 15.7718 20 12 20C8.22905 20 6.34274 20 5.17137 18.8286C4 17.6573 4 15.7718 4 12Z" stroke="#3C6E71" stroke-width="1.26316" stroke-linejoin="round"/>
<path d="M3.99982 14.1053H4.45371C4.85119 14.1053 5.04992 14.1053 5.2234 14.0219C5.39603 13.9394 5.51982 13.7836 5.76824 13.4729L6.94719 12L8.21034 14.1053L9.4735 11.1579L11.5788 15.3684L14.5261 9.47369L16.2103 12.4211L17.4735 11.1579L18.6903 12.9836C18.9026 13.3019 19.0087 13.4611 19.1636 13.5571C19.1945 13.5761 19.2265 13.5933 19.2596 13.6084C19.357 13.6527 19.9203 15.484 19.5 17C18.6903 21 4 21.5 4 14.5" fill="#3C6E71"/>
<path d="M3.99982 14.1053H4.45371C4.85119 14.1053 5.04992 14.1053 5.2234 14.0219C5.39603 13.9394 5.51982 13.7836 5.76824 13.4729L6.94719 12L8.21034 14.1053L9.4735 11.1579L11.5788 15.3684L14.5261 9.47369L16.2103 12.4211L17.4735 11.1579L18.6903 12.9836C18.9026 13.3019 19.0087 13.4611 19.1636 13.5571C19.1945 13.5761 19.2265 13.5933 19.2596 13.6084C19.357 13.6527 19.9203 15.484 19.5 17C18.6903 21 4 21.5 4 14.5" stroke="#3C6E71" stroke-width="1.26316" stroke-linejoin="round"/>
<path d="M14.5263 4V6.52632M14.5263 20V14.1053" stroke="#3C6E71" stroke-width="1.26316" stroke-linecap="round" stroke-linejoin="round"/>
</svg>
