<svg width="24" height="24" viewBox="0 0 24 24" fill="none" xmlns="http://www.w3.org/2000/svg">
<path fill-rule="evenodd" clip-rule="evenodd" d="M21.01 10.171L21.013 13.794C20.987 14.1393 20.954 14.484 20.914 14.828C20.8786 15.1116 20.7485 15.3749 20.5449 15.5754C20.3413 15.7759 20.0761 15.9019 19.792 15.933C17.952 16.139 16.048 16.139 14.208 15.933C13.9239 15.9019 13.6586 15.7759 13.455 15.5754C13.2514 15.3749 13.1214 15.1116 13.086 14.828C12.8658 12.9491 12.8658 11.0509 13.086 9.172C13.1214 8.88844 13.2514 8.62512 13.455 8.42461C13.6586 8.22409 13.9239 8.0981 14.208 8.067C16.0637 7.86178 17.9363 7.86178 19.792 8.067C20.379 8.132 20.847 8.597 20.914 9.172C20.9527 9.50467 20.9847 9.838 21.01 10.172M17 10.5C16.6022 10.5 16.2206 10.658 15.9393 10.9393C15.658 11.2206 15.5 11.6022 15.5 12C15.5 12.3978 15.658 12.7794 15.9393 13.0607C16.2206 13.342 16.6022 13.5 17 13.5C17.3978 13.5 17.7793 13.342 18.0606 13.0607C18.342 12.7794 18.5 12.3978 18.5 12C18.5 11.6022 18.342 11.2206 18.0606 10.9393C17.7793 10.658 17.3978 10.5 17 10.5Z" fill="#D9D9D9"/>
<path d="M20.404 6.04001C20.559 6.30901 20.267 6.61001 19.958 6.57601C17.9919 6.35931 16.008 6.35931 14.042 6.57601C13.4209 6.64462 12.8412 6.92124 12.3971 7.36094C11.9531 7.80064 11.6707 8.37758 11.596 8.99801C11.3641 10.9926 11.3641 13.0074 11.596 15.002C11.6707 15.6224 11.9531 16.1994 12.3971 16.6391C12.8412 17.0788 13.4209 17.3554 14.042 17.424C16.008 17.6407 17.9919 17.6407 19.958 17.424C20.269 17.389 20.564 17.693 20.407 17.964C20.0144 18.6412 19.4674 19.2161 18.8105 19.6418C18.1536 20.0676 17.4055 20.3322 16.627 20.414L15.975 20.482C12.6641 20.8298 9.32473 20.8067 6.01899 20.413L5.58699 20.362C4.72041 20.2591 3.91274 19.8706 3.29134 19.2579C2.66993 18.6452 2.27014 17.8431 2.15499 16.978C1.71368 13.674 1.71368 10.326 2.15499 7.02201C2.27014 6.15696 2.66993 5.35485 3.29134 4.74213C3.91274 4.12942 4.72041 3.74096 5.58699 3.63801L6.01899 3.58701C9.32473 3.19334 12.6641 3.17019 15.975 3.51801L16.627 3.58701C17.4055 3.66885 18.1535 3.93377 18.81 4.36011C19.4664 4.78645 20.0126 5.36211 20.404 6.04001Z" fill="#D9D9D9"/>
</svg>
